<svg width="142" height="211" viewBox="0 0 142 211" fill="none" xmlns="http://www.w3.org/2000/svg">
<path fill-rule="evenodd" clip-rule="evenodd" d="M130.64 76.3948L105.568 105.5H17.04C15.533 105.5 14.0883 104.805 13.0233 103.568C11.9583 102.332 11.36 100.655 11.36 98.9062C11.36 97.1575 11.9583 95.4799 13.0233 94.2435C14.0883 93.007 15.533 92.3125 17.04 92.3125H98.911L119.28 68.6669V39.5625C119.28 32.2958 114.185 26.375 107.92 26.375H85.2V39.5625H107.92V63.2073L94.2082 79.125H73.84V13.1875H113.6C122.994 13.1875 130.64 22.0623 130.64 32.9687V76.3948ZM45.44 162.114L39.76 168.707C36.7206 172.222 31.4387 172.222 28.4 168.707L22.72 162.114V118.687H45.44V162.114ZM39.76 44.9358C43.0723 43.5819 45.9418 41.0707 47.9761 37.7474C50.0095 34.4242 51.108 30.4511 51.12 26.375V13.1875H62.48V79.125H39.76V44.9358ZM28.4 13.1875H39.76V26.375C39.76 28.1237 39.1609 29.8006 38.0959 31.037C37.0309 32.2742 35.5862 32.9687 34.08 32.9687C32.5731 32.9687 31.1283 32.2742 30.0633 31.037C28.9983 29.8006 28.4 28.1237 28.4 26.375V13.1875ZM113.6 0H17.04V26.375C17.04 34.9597 21.805 42.2 28.4 44.9358V79.125H17.04C7.64485 79.125 0 87.9998 0 98.9062C0 107.491 4.76497 114.731 11.36 117.467V167.573L20.3682 178.031C22.6402 180.669 25.4116 182.475 28.4 183.536V211H39.76V183.536C42.7859 182.496 45.5445 180.605 47.791 178.031L56.8 167.573V118.687H110.271L142 81.8544V32.9687C142 14.7892 129.259 0 113.6 0Z" fill="white" fill-opacity="0.04"/>
</svg>
