<svg width="655" height="655" viewBox="0 0 655 655" fill="none" xmlns="http://www.w3.org/2000/svg">
<rect width="655" height="655" rx="327.5" fill="white"/>
<line x1="163.923" y1="287.42" x2="163.923" y2="369.269" stroke="#E5A62F" stroke-width="7"/>
<line x1="494.069" y1="287.42" x2="494.069" y2="369.269" stroke="#E5A62F" stroke-width="7"/>
<path d="M176.916 209.785C178.826 210.575 180.267 211.624 181.241 212.935C182.219 214.234 182.755 215.696 182.848 217.321C182.946 218.934 182.636 220.61 181.919 222.347L179.674 227.782L175.515 226.064C175.633 225.708 175.822 225.181 176.082 224.48C176.343 223.78 176.604 223.095 176.867 222.424C177.122 221.736 177.303 221.263 177.41 221.004C177.832 219.981 177.916 219.114 177.662 218.403C177.395 217.687 176.961 217.097 176.36 216.632C175.746 216.162 175.137 215.802 174.533 215.553C173.929 215.303 173.257 215.134 172.515 215.044C171.761 214.949 171.036 215.06 170.342 215.38C169.647 215.699 169.089 216.37 168.667 217.392C168.504 217.787 168.336 218.193 168.163 218.612C167.977 219.026 167.774 219.483 167.553 219.983L188.7 228.719C188.598 229.21 188.45 229.726 188.255 230.266C188.066 230.794 187.893 231.249 187.735 231.631C187.592 231.976 187.397 232.414 187.148 232.947C186.9 233.479 186.638 233.955 186.363 234.375L161.298 224.021L161.164 223.663C161.769 222.095 162.336 220.634 162.866 219.281C163.389 217.91 163.936 216.535 164.506 215.154C165.224 213.417 166.174 212.006 167.357 210.923C168.546 209.827 169.945 209.164 171.554 208.934C173.157 208.687 174.944 208.971 176.916 209.785Z" fill="#6D011E"/>
<path d="M172.597 199.081C172.753 198.617 172.965 198.124 173.232 197.601C173.506 197.066 173.735 196.637 173.92 196.313C174.124 195.953 174.377 195.537 174.677 195.064C174.984 194.579 175.3 194.145 175.625 193.762L199.366 207.28C199.203 207.755 198.991 208.249 198.731 208.76C198.477 209.26 198.248 209.689 198.043 210.048C197.858 210.373 197.606 210.789 197.286 211.297C196.973 211.794 196.657 212.228 196.338 212.599L172.597 199.081Z" fill="#6D011E"/>
<path d="M182.067 184.08L182.01 183.688L185.43 179.103L189.454 182.104C189.903 182.439 190.302 182.729 190.652 182.973C191.002 183.217 191.396 183.503 191.835 183.83L201.165 190.789C201.561 191.084 201.92 191.36 202.244 191.618C202.567 191.876 202.937 192.16 203.354 192.471L207.41 195.496L205.915 197.5C205.262 198.377 204.491 198.875 203.603 198.995C202.724 199.104 201.84 198.827 200.953 198.166L182.067 184.08ZM199.721 178.509C200.092 178.636 200.485 178.821 200.902 179.066C201.316 179.291 201.657 179.504 201.924 179.703C202.202 179.91 202.508 180.18 202.842 180.513C203.173 180.826 203.458 181.147 203.696 181.474L199.93 186.524C199.731 186.792 199.452 187.166 199.093 187.647C198.731 188.109 198.358 188.587 197.973 189.082C197.595 189.565 197.279 189.978 197.024 190.32L193.144 187.426C193.389 187.076 193.694 186.656 194.061 186.164C194.425 185.654 194.782 185.163 195.133 184.693C195.481 184.204 195.755 183.826 195.954 183.559L199.721 178.509ZM192.222 169.997C192.641 170.193 193.019 170.4 193.355 170.618C193.692 170.836 193.999 171.048 194.277 171.255C194.555 171.463 194.869 171.755 195.219 172.133C195.567 172.492 195.88 172.875 196.159 173.282L191.16 179.984C190.961 180.251 190.682 180.625 190.323 181.106C189.962 181.568 189.589 182.047 189.203 182.541C188.826 183.025 188.504 183.433 188.239 183.768L184.198 180.754L192.222 169.997ZM210.683 182.544C212.041 183.556 212.907 184.535 213.283 185.481C213.648 186.418 213.349 187.534 212.384 188.827L206.178 197.148L202.234 194.206C202.697 193.52 203.139 192.86 203.561 192.227C203.981 191.575 204.478 190.864 205.051 190.095L210.683 182.544Z" fill="#6D011E"/>
<path d="M200.418 168.49C200.031 168.236 199.668 167.967 199.329 167.684C198.999 167.392 198.711 167.123 198.466 166.878C198.221 166.633 197.948 166.34 197.646 166.001C197.354 165.652 197.08 165.284 196.826 164.898L210.686 151.039C211.318 151.388 211.94 151.869 212.553 152.482C213.26 153.189 213.576 153.873 213.5 154.533C213.425 155.193 212.996 155.914 212.213 156.696L211.251 157.658C211.044 157.865 210.742 158.158 210.346 158.535C209.96 158.902 209.663 159.19 209.455 159.397L205.127 163.725C204.92 163.932 204.632 164.229 204.265 164.615C203.897 165.002 203.604 165.304 203.388 165.52L200.418 168.49ZM207.22 165.818C206.834 165.431 206.494 165.082 206.202 164.771C205.9 164.451 205.551 164.092 205.156 163.696L203.374 161.914L207.645 157.644L209.427 159.426C209.823 159.822 210.181 160.171 210.502 160.472C210.813 160.765 211.161 161.104 211.548 161.491L225.208 175.153C224.906 175.587 224.572 176.006 224.204 176.411C223.836 176.817 223.502 177.17 223.2 177.472C222.908 177.764 222.554 178.099 222.139 178.476C221.734 178.844 221.314 179.178 220.88 179.48L207.22 165.818Z" fill="#6D011E"/>
<path d="M217.98 151.639C217.633 151.333 217.311 151.016 217.014 150.689C216.728 150.354 216.48 150.048 216.272 149.771C216.063 149.494 215.833 149.167 215.581 148.789C215.34 148.403 215.12 148.001 214.922 147.582L230.572 135.783C231.149 136.216 231.699 136.778 232.22 137.47C232.822 138.269 233.04 138.99 232.874 139.633C232.708 140.276 232.183 140.931 231.299 141.597L230.213 142.416C229.979 142.592 229.639 142.84 229.195 143.158C228.761 143.469 228.427 143.712 228.193 143.889L223.306 147.573C223.072 147.75 222.746 148.004 222.328 148.336C221.91 148.667 221.579 148.925 221.334 149.11L217.98 151.639ZM225.088 149.937C224.759 149.5 224.471 149.107 224.225 148.759C223.971 148.399 223.675 147.996 223.338 147.549L221.821 145.537L226.644 141.901L228.161 143.913C228.498 144.36 228.804 144.755 229.08 145.098C229.347 145.431 229.646 145.816 229.975 146.252L241.606 161.679C241.247 162.066 240.857 162.435 240.437 162.786C240.016 163.136 239.636 163.44 239.295 163.697C238.965 163.945 238.568 164.228 238.105 164.544C237.653 164.851 237.191 165.125 236.719 165.363L225.088 149.937Z" fill="#6D011E"/>
<path d="M258.8 129.633C259.409 130.759 259.731 131.873 259.767 132.976C259.814 134.072 259.663 135.094 259.312 136.042C258.966 136.972 258.514 137.762 257.956 138.413C258.734 138.28 259.495 138.384 260.24 138.723C260.984 139.063 261.698 139.541 262.38 140.157L265.2 142.679C265.71 143.146 266.224 143.52 266.74 143.802C267.262 144.065 267.783 144.245 268.306 144.341C268.225 144.976 267.933 145.627 267.429 146.294C266.92 146.949 266.313 147.467 265.609 147.847C264.636 148.374 263.787 148.5 263.062 148.225C262.343 147.932 261.522 147.368 260.6 146.533L257.198 143.44C256.644 142.921 256.029 142.556 255.354 142.345C254.685 142.116 253.869 142.262 252.908 142.782L249.073 144.857L246.893 140.829C247.338 140.558 247.888 140.23 248.544 139.845C249.211 139.454 249.847 139.087 250.45 138.745C251.047 138.392 251.486 138.139 251.768 137.987C252.694 137.485 253.315 136.937 253.63 136.342C253.95 135.729 254.058 135.102 253.954 134.461C253.849 133.821 253.635 133.201 253.312 132.603C252.969 131.97 252.561 131.44 252.088 131.014C251.615 130.588 251.04 130.353 250.365 130.309C249.695 130.247 248.896 130.467 247.97 130.968C247.724 131.102 247.448 131.251 247.143 131.416C246.838 131.581 246.522 131.752 246.193 131.93C245.859 132.096 245.518 132.265 245.172 132.437L256.09 152.612C255.689 152.936 255.254 153.239 254.786 153.523C254.318 153.806 253.896 154.05 253.521 154.253C253.193 154.43 252.77 154.644 252.253 154.893C251.736 155.143 251.238 155.344 250.76 155.497L237.853 131.645L237.975 131.283C239.434 130.449 240.842 129.648 242.202 128.882C243.555 128.105 244.888 127.36 246.201 126.65C247.831 125.768 249.431 125.25 251.001 125.098C252.565 124.934 254.021 125.215 255.369 125.941C256.71 126.655 257.854 127.886 258.8 129.633Z" fill="#6D011E"/>
<path d="M269.512 116.659C269.957 116.435 270.494 116.193 271.124 115.933C271.753 115.673 272.308 115.461 272.786 115.295C273.253 115.134 273.814 114.962 274.47 114.777C275.138 114.589 275.714 114.46 276.198 114.392L293.161 136.97C292.836 137.336 292.378 137.685 291.787 138.016C291.201 138.36 290.63 138.628 290.076 138.819C289.168 139.133 288.385 139.171 287.724 138.933C287.059 138.683 286.337 138.002 285.558 136.889L279.185 127.812C278.512 126.846 277.739 125.73 276.865 124.466C276.003 123.198 275.21 122.005 274.486 120.887L274.259 120.965C274.422 122.052 274.55 123.319 274.642 124.769C274.742 126.201 274.816 127.459 274.866 128.542L275.517 143.532C275.194 143.742 274.829 143.931 274.422 144.1C274.015 144.269 273.591 144.43 273.15 144.582C272.709 144.735 272.206 144.873 271.643 144.997C271.079 145.121 270.605 145.179 270.221 145.171L269.909 144.94L269.512 116.659ZM276.867 136.844C276.69 136.905 276.476 136.979 276.224 137.066C275.968 137.141 275.713 137.222 275.461 137.309C275.218 137.379 275.007 137.444 274.831 137.505L271.825 138.544L272.041 133.412L274.669 132.504C274.845 132.443 275.053 132.371 275.293 132.288C275.528 132.193 275.765 132.104 276.005 132.021C276.24 131.926 276.439 131.85 276.603 131.793L279.495 130.794C279.672 130.733 279.882 130.668 280.126 130.598C280.365 130.515 280.607 130.439 280.851 130.368C281.09 130.286 281.298 130.214 281.474 130.153L284.196 129.212L287.213 133.228L284.226 134.259C284.05 134.32 283.838 134.401 283.59 134.5C283.338 134.587 283.088 134.681 282.84 134.78C282.601 134.863 282.393 134.935 282.217 134.996L276.867 136.844Z" fill="#6D011E"/>
<path d="M305.464 132.81C305.458 131.94 305.638 131.064 306.006 130.183C306.387 129.301 306.844 128.579 307.377 128.016C308.573 128.58 309.907 129.057 311.379 129.445C312.852 129.834 314.291 129.958 315.698 129.818C316.918 129.696 317.779 129.322 318.279 128.696C318.778 128.056 318.992 127.385 318.922 126.682C318.871 126.177 318.652 125.663 318.265 125.139C317.89 124.601 317.115 124.155 315.941 123.804L310.944 122.273C309.23 121.748 307.778 120.968 306.59 119.935C305.414 118.9 304.732 117.44 304.544 115.556C304.381 113.924 304.662 112.449 305.388 111.13C306.114 109.812 307.165 108.735 308.543 107.901C309.933 107.065 311.524 106.558 313.315 106.379C315.172 106.193 316.941 106.257 318.62 106.572C320.3 106.886 321.684 107.264 322.774 107.704C322.807 108.572 322.679 109.436 322.389 110.296C322.099 111.142 321.689 111.866 321.159 112.469C320.089 112.08 318.864 111.753 317.484 111.489C316.104 111.225 314.883 111.146 313.822 111.252C312.641 111.37 311.806 111.728 311.317 112.327C310.84 112.924 310.633 113.527 310.694 114.138C310.749 114.695 310.984 115.167 311.398 115.555C311.824 115.927 312.5 116.255 313.426 116.538L318.504 118.08C319.816 118.472 320.956 119.015 321.923 119.709C322.902 120.388 323.674 121.202 324.237 122.151C324.813 123.085 325.159 124.129 325.274 125.283C325.433 126.875 325.192 128.346 324.549 129.697C323.921 131.046 322.874 132.169 321.409 133.066C319.957 133.961 318.077 134.524 315.769 134.755C314.15 134.917 312.414 134.836 310.559 134.512C308.716 134.174 307.018 133.606 305.464 132.81Z" fill="#6D011E"/>
<path d="M336.45 119.915C336.384 120.993 336.377 122.094 336.428 123.22C336.493 124.346 336.676 125.392 336.978 126.359C337.293 127.327 337.791 128.125 338.474 128.755C339.158 129.371 340.092 129.715 341.276 129.788C342.461 129.86 343.43 129.632 344.184 129.104C344.938 128.562 345.524 127.83 345.941 126.907C346.371 125.985 346.681 124.969 346.869 123.858C347.07 122.749 347.204 121.655 347.27 120.577C347.336 119.499 347.336 118.403 347.271 117.291C347.219 116.165 347.036 115.126 346.72 114.171C346.419 113.204 345.926 112.413 345.243 111.796C344.56 111.167 343.626 110.816 342.442 110.743C341.257 110.671 340.288 110.906 339.533 111.447C338.78 111.975 338.187 112.701 337.757 113.623C337.341 114.532 337.032 115.542 336.83 116.652C336.643 117.749 336.516 118.837 336.45 119.915ZM330.102 119.526C330.276 116.692 330.853 114.236 331.835 112.158C332.817 110.081 334.21 108.503 336.012 107.425C337.828 106.347 340.067 105.889 342.729 106.052C345.417 106.217 347.589 106.951 349.246 108.254C350.916 109.559 352.106 111.301 352.814 113.482C353.535 115.663 353.81 118.158 353.638 120.966C353.465 123.801 352.887 126.264 351.904 128.354C350.922 130.431 349.522 132.016 347.706 133.107C345.903 134.185 343.664 134.643 340.989 134.479C338.98 134.356 337.257 133.91 335.821 133.141C334.387 132.359 333.222 131.305 332.328 129.982C331.447 128.659 330.82 127.111 330.448 125.338C330.089 123.566 329.974 121.629 330.102 119.526Z" fill="#6D011E"/>
<path d="M362.904 137.207L360.384 136.653C359.329 136.421 358.557 135.93 358.066 135.18C357.579 134.418 357.455 133.49 357.696 132.396L362.812 109.132L363.145 108.918L365.333 109.399C366.492 109.654 367.299 110.146 367.753 110.874C368.22 111.604 368.308 112.634 368.016 113.962L362.904 137.207ZM374.582 134.389C374.164 136.29 373.564 137.558 372.783 138.192C372.005 138.812 370.88 138.961 369.409 138.637L360.384 136.653L358.15 131.636C359.853 131.71 361.527 131.86 363.17 132.084C364.827 132.312 366.326 132.573 367.667 132.868L374.582 134.389Z" fill="#6D011E"/>
<path d="M395.132 123.643C395.237 123.192 395.363 122.759 395.51 122.342C395.67 121.931 395.822 121.568 395.966 121.253C396.111 120.938 396.29 120.58 396.504 120.18C396.73 119.784 396.979 119.4 397.253 119.027L415.063 127.211C414.955 127.925 414.72 128.675 414.359 129.463C413.941 130.371 413.41 130.905 412.765 131.063C412.12 131.222 411.294 131.07 410.289 130.608L409.053 130.04C408.786 129.918 408.408 129.736 407.916 129.496C407.437 129.261 407.065 129.082 406.798 128.96L401.237 126.404C400.97 126.282 400.592 126.115 400.102 125.905C399.612 125.694 399.227 125.525 398.949 125.397L395.132 123.643ZM400.001 129.094C400.229 128.597 400.439 128.158 400.629 127.776C400.825 127.382 401.04 126.93 401.273 126.421L402.326 124.131L407.814 126.653L406.762 128.943C406.528 129.452 406.325 129.909 406.153 130.315C405.987 130.708 405.79 131.153 405.562 131.65L397.495 149.205C396.983 149.072 396.474 148.904 395.966 148.7C395.458 148.496 395.01 148.305 394.623 148.127C394.247 147.954 393.81 147.739 393.313 147.481C392.827 147.228 392.367 146.951 391.934 146.649L400.001 129.094Z" fill="#6D011E"/>
<path d="M427.448 134.886C427.897 135.103 428.416 135.381 429.005 135.723C429.595 136.064 430.101 136.374 430.524 136.653C430.936 136.925 431.414 137.265 431.96 137.673C432.516 138.088 432.969 138.467 433.318 138.809L425.738 166.013C425.25 165.979 424.694 165.828 424.072 165.561C423.442 165.305 422.882 165.015 422.393 164.692C421.592 164.163 421.084 163.564 420.87 162.896C420.664 162.216 420.765 161.229 421.173 159.932L424.491 149.35C424.849 148.228 425.263 146.935 425.733 145.473C426.214 144.017 426.678 142.661 427.123 141.406L426.923 141.274C426.161 142.065 425.233 142.938 424.139 143.893C423.064 144.845 422.112 145.67 421.283 146.369L409.789 156.013C409.426 155.885 409.053 155.711 408.672 155.491C408.29 155.271 407.904 155.032 407.515 154.775C407.125 154.518 406.709 154.204 406.268 153.832C405.826 153.461 405.491 153.12 405.265 152.811L405.257 152.422L427.448 134.886ZM415.916 153.012C415.76 152.909 415.571 152.784 415.348 152.637C415.133 152.479 414.914 152.326 414.692 152.18C414.488 152.029 414.308 151.902 414.152 151.799L411.498 150.047L415.7 147.094L418.02 148.625C418.176 148.728 418.36 148.849 418.571 148.989C418.79 149.117 419.005 149.251 419.216 149.391C419.435 149.519 419.617 149.631 419.762 149.727L422.315 151.412C422.471 151.515 422.651 151.642 422.855 151.793C423.067 151.932 423.274 152.077 423.478 152.228C423.69 152.368 423.873 152.489 424.029 152.592L426.433 154.178L425.085 159.016L422.448 157.275C422.292 157.172 422.099 157.053 421.869 156.917C421.646 156.77 421.42 156.629 421.19 156.493C420.979 156.354 420.795 156.232 420.639 156.13L415.916 153.012Z" fill="#6D011E"/>
<path d="M440.914 150.734C441.149 150.336 441.399 149.96 441.665 149.607C441.941 149.263 442.195 148.962 442.428 148.705C442.66 148.449 442.939 148.161 443.263 147.843C443.597 147.534 443.951 147.243 444.324 146.969L458.85 160.129C458.532 160.777 458.083 161.422 457.501 162.065C456.83 162.806 456.162 163.155 455.499 163.112C454.837 163.069 454.095 162.676 453.275 161.933L452.267 161.02C452.05 160.823 451.743 160.536 451.347 160.159C450.96 159.791 450.659 159.509 450.441 159.312L445.906 155.203C445.688 155.006 445.378 154.733 444.973 154.385C444.569 154.037 444.253 153.76 444.026 153.554L440.914 150.734ZM443.918 157.397C444.285 156.991 444.617 156.635 444.913 156.328C445.219 156.011 445.559 155.645 445.935 155.23L447.627 153.362L452.104 157.418L450.412 159.285C450.036 159.7 449.705 160.075 449.419 160.41C449.143 160.735 448.821 161.1 448.454 161.506L435.482 175.823C435.034 175.543 434.599 175.23 434.176 174.883C433.753 174.535 433.383 174.218 433.067 173.932C432.76 173.654 432.409 173.318 432.012 172.922C431.624 172.535 431.269 172.133 430.947 171.714L443.918 157.397Z" fill="#6D011E"/>
<path d="M458.612 167.443C458.9 167.081 459.201 166.744 459.513 166.431C459.833 166.129 460.127 165.866 460.393 165.644C460.659 165.422 460.975 165.176 461.34 164.906C461.714 164.647 462.105 164.407 462.512 164.188L475.07 179.237C474.666 179.835 474.131 180.412 473.466 180.967C472.698 181.608 471.989 181.861 471.338 181.726C470.688 181.592 470.008 181.1 469.299 180.25L468.427 179.206C468.24 178.981 467.976 178.654 467.636 178.226C467.304 177.808 467.044 177.486 466.856 177.261L462.935 172.562C462.747 172.337 462.478 172.023 462.126 171.623C461.774 171.222 461.499 170.903 461.303 170.668L458.612 167.443ZM460.663 174.458C461.082 174.108 461.46 173.801 461.797 173.538C462.143 173.267 462.531 172.951 462.961 172.593L464.896 170.978L468.766 175.615L466.831 177.23C466.401 177.589 466.021 177.914 465.692 178.206C465.373 178.49 465.003 178.807 464.584 179.157L449.75 191.535C449.345 191.196 448.957 190.825 448.587 190.422C448.216 190.02 447.894 189.655 447.621 189.327C447.356 189.01 447.054 188.627 446.716 188.18C446.386 187.743 446.09 187.296 445.829 186.837L460.663 174.458Z" fill="#6D011E"/>
<path d="M470.572 197.367C469.646 197.922 468.733 198.539 467.835 199.218C466.943 199.908 466.183 200.651 465.556 201.447C464.936 202.254 464.56 203.117 464.427 204.036C464.305 204.948 464.55 205.913 465.16 206.931C465.77 207.949 466.506 208.619 467.368 208.942C468.241 209.258 469.177 209.327 470.174 209.149C471.177 208.982 472.191 208.662 473.213 208.189C474.242 207.728 475.22 207.219 476.146 206.664C477.072 206.109 477.976 205.489 478.856 204.806C479.755 204.127 480.509 203.388 481.118 202.588C481.744 201.792 482.119 200.938 482.24 200.026C482.373 199.107 482.135 198.138 481.524 197.121C480.914 196.103 480.172 195.436 479.299 195.12C478.437 194.797 477.504 194.719 476.5 194.886C475.515 195.057 474.507 195.373 473.478 195.835C472.467 196.301 471.499 196.812 470.572 197.367ZM467.302 191.912C469.738 190.452 472.09 189.539 474.359 189.174C476.627 188.809 478.716 189.065 480.625 189.941C482.541 190.829 484.184 192.417 485.555 194.704C486.94 197.014 487.564 199.221 487.426 201.324C487.295 203.44 486.53 205.406 485.132 207.223C483.741 209.052 481.839 210.69 479.427 212.136C476.991 213.596 474.633 214.512 472.353 214.884C470.084 215.249 467.986 214.991 466.059 214.11C464.15 213.234 462.507 211.646 461.129 209.348C460.093 207.621 459.487 205.948 459.309 204.329C459.143 202.703 459.353 201.147 459.939 199.661C460.531 198.186 461.453 196.794 462.705 195.484C463.963 194.186 465.495 192.995 467.302 191.912Z" fill="#6D011E"/>
<path d="M481.078 222.881C480.152 223.436 479.239 224.053 478.34 224.732C477.448 225.422 476.689 226.165 476.062 226.961C475.442 227.767 475.066 228.631 474.933 229.55C474.811 230.462 475.055 231.427 475.665 232.445C476.276 233.463 477.012 234.133 477.874 234.456C478.747 234.772 479.682 234.841 480.679 234.663C481.683 234.496 482.696 234.176 483.719 233.703C484.748 233.242 485.725 232.733 486.652 232.178C487.578 231.623 488.482 231.003 489.362 230.32C490.261 229.641 491.015 228.902 491.623 228.102C492.25 227.306 492.624 226.452 492.746 225.54C492.879 224.621 492.64 223.652 492.03 222.634C491.42 221.617 490.678 220.95 489.805 220.634C488.943 220.311 488.01 220.233 487.006 220.4C486.02 220.571 485.013 220.887 483.984 221.349C482.973 221.815 482.004 222.325 481.078 222.881ZM477.808 217.426C480.244 215.966 482.596 215.053 484.864 214.688C487.133 214.323 489.222 214.579 491.131 215.455C493.047 216.343 494.69 217.931 496.061 220.218C497.446 222.528 498.07 224.735 497.932 226.838C497.8 228.953 497.036 230.92 495.638 232.737C494.247 234.566 492.345 236.204 489.932 237.65C487.496 239.11 485.139 240.026 482.859 240.398C480.59 240.763 478.492 240.505 476.565 239.624C474.656 238.748 473.012 237.16 471.634 234.862C470.599 233.135 469.993 231.462 469.815 229.843C469.649 228.217 469.858 226.661 470.444 225.175C471.037 223.7 471.959 222.308 473.21 220.998C474.469 219.7 476.001 218.509 477.808 217.426Z" fill="#6D011E"/>
<path d="M181.316 431.772C179.407 432.563 177.645 432.839 176.03 432.599C174.42 432.371 173.008 431.715 171.793 430.631C170.584 429.559 169.62 428.154 168.9 426.418L166.649 420.986L170.806 419.263C170.973 419.597 171.212 420.104 171.523 420.784C171.833 421.464 172.133 422.133 172.421 422.793C172.726 423.461 172.932 423.924 173.04 424.182C173.463 425.205 174.016 425.877 174.699 426.201C175.394 426.519 176.118 426.63 176.872 426.534C177.638 426.433 178.323 426.257 178.927 426.007C179.53 425.757 180.126 425.402 180.715 424.942C181.316 424.476 181.749 423.885 182.015 423.169C182.281 422.452 182.202 421.583 181.779 420.56C181.615 420.166 181.447 419.76 181.273 419.341C181.112 418.917 180.933 418.45 180.736 417.94L159.599 426.7C159.324 426.28 159.065 425.81 158.82 425.291C158.581 424.784 158.383 424.339 158.225 423.957C158.082 423.612 157.91 423.164 157.71 422.612C157.51 422.059 157.359 421.538 157.256 421.046L182.31 410.663L182.657 410.822C183.337 412.359 183.968 413.793 184.549 415.126C185.148 416.465 185.733 417.825 186.304 419.204C187.024 420.941 187.348 422.611 187.276 424.214C187.21 425.829 186.688 427.287 185.711 428.586C184.752 429.893 183.287 430.955 181.316 431.772Z" fill="#6D011E"/>
<path d="M192.96 433.574C193.28 433.943 193.597 434.376 193.912 434.871C194.234 435.379 194.488 435.794 194.674 436.118C194.88 436.476 195.111 436.905 195.366 437.404C195.629 437.914 195.842 438.407 196.007 438.881L172.315 452.485C171.989 452.104 171.671 451.671 171.362 451.187C171.06 450.715 170.807 450.3 170.601 449.941C170.415 449.617 170.184 449.189 169.908 448.655C169.639 448.133 169.426 447.641 169.268 447.178L192.96 433.574Z" fill="#6D011E"/>
<path d="M200.118 446.189L200.51 446.244L203.957 450.808L199.951 453.834C199.505 454.172 199.115 454.474 198.783 454.742C198.45 455.01 198.066 455.308 197.63 455.638L188.341 462.653C187.948 462.951 187.582 463.219 187.244 463.457C186.906 463.695 186.53 463.971 186.115 464.285L182.077 467.335L180.57 465.34C179.911 464.467 179.648 463.588 179.781 462.702C179.922 461.827 180.434 461.056 181.318 460.389L200.118 446.189ZM200.536 464.696C200.311 465.017 200.022 465.343 199.671 465.675C199.339 466.009 199.04 466.277 198.774 466.478C198.498 466.687 198.153 466.905 197.74 467.134C197.347 467.364 196.959 467.548 196.578 467.685L192.781 462.658C192.58 462.392 192.299 462.02 191.937 461.541C191.595 461.065 191.24 460.573 190.872 460.065C190.513 459.567 190.205 459.148 189.948 458.808L193.81 455.891C194.078 456.223 194.397 456.634 194.767 457.124C195.155 457.616 195.526 458.096 195.879 458.564C196.252 459.035 196.538 459.403 196.739 459.669L200.536 464.696ZM210.804 459.873C210.498 460.221 210.194 460.526 209.891 460.788C209.588 461.051 209.298 461.286 209.021 461.495C208.745 461.704 208.376 461.924 207.916 462.155C207.474 462.389 207.018 462.582 206.55 462.736L201.511 456.065C201.31 455.799 201.029 455.426 200.667 454.948C200.324 454.471 199.969 453.979 199.602 453.471C199.243 452.974 198.94 452.551 198.694 452.202L202.716 449.165L210.804 459.873ZM193.6 474.096C192.249 475.116 191.067 475.675 190.054 475.772C189.051 475.86 188.064 475.261 187.091 473.974L180.835 465.691L184.761 462.725C185.292 463.361 185.802 463.97 186.292 464.552C186.8 465.137 187.344 465.813 187.922 466.579L193.6 474.096Z" fill="#6D011E"/>
<path d="M209.714 466.375C209.965 465.986 210.231 465.621 210.511 465.279C210.8 464.946 211.066 464.656 211.309 464.409C211.552 464.162 211.842 463.886 212.178 463.581C212.525 463.285 212.89 463.009 213.274 462.751L227.257 476.485C226.914 477.12 226.439 477.747 225.831 478.365C225.131 479.078 224.45 479.4 223.789 479.331C223.129 479.261 222.404 478.839 221.614 478.063L220.644 477.11C220.435 476.905 220.14 476.606 219.759 476.213C219.388 475.83 219.098 475.535 218.888 475.33L214.522 471.041C214.313 470.836 214.013 470.551 213.624 470.187C213.234 469.822 212.929 469.533 212.711 469.318L209.714 466.375ZM212.448 473.153C212.831 472.763 213.177 472.42 213.485 472.125C213.803 471.821 214.158 471.469 214.551 471.069L216.317 469.272L220.626 473.504L218.86 475.302C218.467 475.701 218.122 476.063 217.823 476.386C217.533 476.7 217.197 477.052 216.814 477.442L203.276 491.225C202.839 490.927 202.417 490.596 202.008 490.232C201.6 489.868 201.243 489.536 200.939 489.237C200.644 488.948 200.306 488.597 199.925 488.186C199.554 487.784 199.215 487.367 198.91 486.936L212.448 473.153Z" fill="#6D011E"/>
<path d="M226.068 482.133C226.262 481.713 226.473 481.314 226.701 480.935C226.941 480.565 227.163 480.241 227.368 479.961C227.574 479.682 227.822 479.368 228.112 479.019C228.413 478.677 228.735 478.352 229.079 478.042L244.865 489.659C244.615 490.336 244.234 491.023 243.72 491.721C243.127 492.527 242.499 492.942 241.835 492.966C241.171 492.991 240.394 492.676 239.502 492.02L238.407 491.214C238.171 491.04 237.837 490.785 237.404 490.451C236.982 490.124 236.654 489.873 236.417 489.7L231.488 486.072C231.252 485.898 230.915 485.659 230.478 485.353C230.04 485.048 229.698 484.804 229.451 484.623L226.068 482.133ZM229.734 488.456C230.058 488.016 230.352 487.628 230.615 487.292C230.887 486.946 231.188 486.547 231.52 486.096L233.014 484.066L237.879 487.646L236.385 489.676C236.053 490.127 235.762 490.534 235.512 490.896C235.27 491.247 234.987 491.643 234.663 492.084L223.212 507.644C222.738 507.411 222.272 507.143 221.816 506.841C221.36 506.538 220.96 506.261 220.617 506.008C220.284 505.763 219.9 505.464 219.465 505.11C219.04 504.765 218.646 504.4 218.283 504.017L229.734 488.456Z" fill="#6D011E"/>
<path d="M262.284 508.589C261.691 509.724 260.948 510.614 260.053 511.26C259.171 511.912 258.239 512.358 257.256 512.597C256.292 512.83 255.384 512.897 254.533 512.798C255.078 513.369 255.417 514.058 255.552 514.865C255.687 515.673 255.689 516.532 255.56 517.442L255.046 521.19C254.944 521.874 254.921 522.508 254.976 523.094C255.049 523.674 255.192 524.207 255.404 524.694C254.832 524.982 254.129 525.103 253.295 525.059C252.467 525.002 251.698 524.789 250.989 524.418C250.009 523.906 249.429 523.272 249.252 522.518C249.093 521.757 249.101 520.762 249.278 519.53L249.941 514.98C250.062 514.231 250.021 513.517 249.818 512.84C249.634 512.156 249.057 511.562 248.088 511.055L244.223 509.036L246.344 504.977C246.818 505.194 247.397 505.467 248.083 505.795C248.781 506.13 249.44 506.452 250.061 506.761C250.688 507.058 251.143 507.281 251.427 507.429C252.36 507.917 253.161 508.125 253.831 508.054C254.518 507.976 255.098 507.715 255.571 507.271C256.044 506.826 256.438 506.302 256.753 505.699C257.087 505.061 257.298 504.427 257.387 503.796C257.475 503.166 257.349 502.558 257.008 501.974C256.684 501.383 256.056 500.844 255.122 500.357C254.874 500.227 254.596 500.082 254.289 499.921C253.982 499.761 253.663 499.594 253.332 499.421C253.007 499.236 252.676 499.049 252.34 498.858L241.716 519.19C241.224 519.038 240.73 518.847 240.233 518.618C239.736 518.388 239.298 518.174 238.92 517.977C238.589 517.804 238.176 517.573 237.68 517.284C237.184 516.995 236.739 516.695 236.345 516.383L248.904 492.347L249.273 492.246C250.781 492.988 252.232 493.709 253.627 494.408C255.028 495.095 256.39 495.784 257.714 496.476C259.356 497.334 260.68 498.371 261.684 499.588C262.694 500.793 263.275 502.157 263.427 503.68C263.585 505.192 263.204 506.828 262.284 508.589Z" fill="#6D011E"/>
<path d="M277.509 505.288C277.998 505.378 278.573 505.509 279.232 505.681C279.891 505.854 280.461 506.019 280.943 506.176C281.412 506.328 281.963 506.529 282.598 506.778C283.244 507.031 283.782 507.276 284.209 507.513L284.119 535.753C283.638 535.85 283.063 535.851 282.392 535.759C281.717 535.679 281.1 535.549 280.542 535.367C279.63 535.07 278.981 534.627 278.598 534.039C278.219 533.439 278.054 532.46 278.103 531.102L278.495 520.018C278.542 518.842 278.598 517.486 278.663 515.95C278.741 514.419 278.829 512.989 278.925 511.66L278.697 511.586C278.172 512.551 277.509 513.639 276.708 514.851C275.923 516.053 275.224 517.102 274.611 517.996L266.088 530.343C265.704 530.316 265.298 530.247 264.872 530.136C264.445 530.026 264.01 529.898 263.566 529.753C263.123 529.609 262.638 529.416 262.114 529.175C261.589 528.934 261.177 528.695 260.876 528.456L260.766 528.084L277.509 505.288ZM271.198 525.824C271.021 525.766 270.805 525.696 270.552 525.613C270.303 525.518 270.051 525.429 269.797 525.346C269.561 525.255 269.354 525.181 269.176 525.123L266.152 524.138L269.42 520.175L272.064 521.036C272.241 521.094 272.45 521.162 272.691 521.241C272.936 521.307 273.179 521.379 273.42 521.457C273.665 521.523 273.87 521.583 274.035 521.636L276.944 522.584C277.122 522.642 277.329 522.716 277.566 522.808C277.807 522.886 278.045 522.971 278.282 523.062C278.523 523.14 278.732 523.208 278.91 523.266L281.648 524.158L281.632 529.18L278.627 528.202C278.45 528.144 278.232 528.08 277.975 528.01C277.721 527.927 277.465 527.851 277.208 527.781C276.967 527.703 276.758 527.635 276.58 527.577L271.198 525.824Z" fill="#6D011E"/>
<path d="M304.286 537.54C304.433 536.682 304.764 535.852 305.281 535.049C305.811 534.248 306.388 533.617 307.012 533.157C308.09 533.923 309.319 534.626 310.7 535.268C312.082 535.91 313.477 536.286 314.886 536.395C316.109 536.489 317.022 536.273 317.624 535.744C318.228 535.203 318.557 534.579 318.612 533.875C318.651 533.37 318.526 532.825 318.237 532.241C317.962 531.645 317.277 531.07 316.183 530.517L311.534 528.131C309.939 527.312 308.647 526.29 307.659 525.063C306.684 523.837 306.27 522.281 306.416 520.393C306.543 518.758 307.079 517.355 308.026 516.185C308.972 515.014 310.197 514.14 311.699 513.561C313.215 512.983 314.87 512.763 316.665 512.902C318.526 513.046 320.256 513.421 321.854 514.026C323.452 514.631 324.748 515.246 325.743 515.872C325.623 516.732 325.345 517.559 324.908 518.355C324.473 519.137 323.942 519.778 323.315 520.277C322.33 519.706 321.181 519.169 319.869 518.667C318.558 518.164 317.37 517.871 316.306 517.789C315.123 517.697 314.238 517.903 313.651 518.406C313.077 518.91 312.766 519.467 312.719 520.079C312.676 520.637 312.824 521.143 313.163 521.598C313.517 522.04 314.124 522.481 314.986 522.922L319.714 525.335C320.937 525.951 321.963 526.686 322.793 527.539C323.637 528.38 324.254 529.317 324.642 530.35C325.044 531.371 325.2 532.459 325.111 533.616C324.987 535.211 324.491 536.617 323.621 537.833C322.764 539.051 321.536 539.972 319.937 540.597C318.35 541.223 316.4 541.447 314.087 541.268C312.466 541.142 310.77 540.757 309.001 540.112C307.247 539.454 305.675 538.597 304.286 537.54Z" fill="#6D011E"/>
<path d="M337.942 527.414C338.035 528.49 338.19 529.58 338.407 530.686C338.636 531.79 338.971 532.798 339.412 533.71C339.866 534.621 340.477 535.338 341.245 535.86C342.012 536.369 342.986 536.572 344.168 536.469C345.351 536.367 346.276 535.999 346.943 535.365C347.61 534.718 348.082 533.908 348.358 532.934C348.648 531.958 348.805 530.907 348.827 529.781C348.863 528.654 348.835 527.552 348.741 526.476C348.648 525.4 348.487 524.317 348.258 523.226C348.042 522.12 347.707 521.119 347.255 520.221C346.814 519.309 346.211 518.599 345.444 518.09C344.676 517.568 343.701 517.358 342.518 517.461C341.336 517.563 340.412 517.938 339.745 518.585C339.077 519.218 338.598 520.023 338.308 520.998C338.03 521.959 337.874 523.003 337.838 524.13C337.814 525.243 337.848 526.338 337.942 527.414ZM331.606 527.964C331.36 525.134 331.57 522.62 332.236 520.421C332.901 518.222 334.046 516.456 335.671 515.124C337.308 513.791 339.455 513.009 342.112 512.778C344.795 512.545 347.052 512.952 348.883 513.997C350.727 515.042 352.159 516.59 353.18 518.643C354.215 520.695 354.854 523.122 355.097 525.925C355.343 528.754 355.134 531.275 354.469 533.487C353.803 535.686 352.652 537.459 351.016 538.806C349.392 540.138 347.245 540.92 344.575 541.152C342.569 541.326 340.799 541.138 339.266 540.589C337.732 540.026 336.425 539.156 335.346 537.978C334.28 536.799 333.432 535.36 332.803 533.662C332.187 531.962 331.788 530.063 331.606 527.964Z" fill="#6D011E"/>
<path d="M371.804 536.181L369.301 536.807C368.253 537.069 367.343 536.973 366.57 536.52C365.794 536.055 365.27 535.279 364.998 534.192L359.221 511.083L359.425 510.744L361.598 510.201C362.749 509.913 363.69 509.994 364.421 510.443C365.165 510.889 365.701 511.772 366.031 513.092L371.804 536.181ZM381.006 528.458C381.478 530.347 381.505 531.749 381.088 532.664C380.668 533.566 379.727 534.2 378.265 534.565L369.301 536.807L365.066 533.309C366.625 532.617 368.19 532.006 369.762 531.476C371.346 530.942 372.805 530.509 374.137 530.176L381.006 528.458Z" fill="#6D011E"/>
<path d="M391.277 506.563C390.99 506.199 390.731 505.829 390.499 505.454C390.278 505.072 390.09 504.726 389.935 504.416C389.78 504.106 389.613 503.742 389.435 503.325C389.268 502.901 389.125 502.466 389.005 502.019L406.538 493.256C407.027 493.787 407.465 494.44 407.852 495.215C408.299 496.11 408.383 496.858 408.102 497.46C407.822 498.063 407.187 498.611 406.197 499.106L404.98 499.714C404.718 499.845 404.339 500.027 403.844 500.259C403.361 500.486 402.989 500.665 402.726 500.796L397.252 503.532C396.989 503.663 396.623 503.854 396.152 504.104C395.68 504.354 395.308 504.548 395.033 504.685L391.277 506.563ZM398.575 506.18C398.331 505.691 398.119 505.252 397.94 504.865C397.756 504.465 397.538 504.015 397.288 503.514L396.161 501.26L401.564 498.56L402.69 500.814C402.941 501.315 403.17 501.759 403.379 502.146C403.582 502.522 403.805 502.955 404.049 503.444L412.687 520.725C412.263 521.041 411.813 521.333 411.336 521.602C410.859 521.87 410.43 522.099 410.048 522.29C409.678 522.475 409.237 522.681 408.724 522.907C408.223 523.128 407.719 523.312 407.212 523.461L398.575 506.18Z" fill="#6D011E"/>
<path d="M415.619 487.219C415.982 486.878 416.429 486.495 416.96 486.067C417.49 485.64 417.962 485.28 418.374 484.985C418.776 484.699 419.266 484.375 419.843 484.013C420.43 483.643 420.947 483.357 421.392 483.154L444.044 500.019C443.836 500.462 443.495 500.926 443.022 501.41C442.556 501.906 442.085 502.324 441.607 502.664C440.825 503.221 440.084 503.48 439.383 503.438C438.675 503.387 437.79 502.937 436.728 502.089L428.049 495.184C427.131 494.447 426.074 493.595 424.878 492.63C423.694 491.657 422.596 490.737 421.585 489.869L421.389 490.008C421.853 491.004 422.334 492.184 422.831 493.549C423.332 494.894 423.759 496.08 424.113 497.105L428.973 511.299C428.723 511.592 428.427 511.877 428.084 512.154C427.741 512.431 427.38 512.705 427 512.976C426.62 513.247 426.177 513.521 425.671 513.8C425.166 514.078 424.727 514.268 424.357 514.368L423.992 514.235L415.619 487.219ZM428.378 504.503C428.226 504.611 428.042 504.743 427.825 504.897C427.6 505.041 427.379 505.191 427.161 505.345C426.947 505.482 426.764 505.604 426.612 505.712L424.023 507.558L422.78 502.574L425.044 500.961C425.196 500.852 425.375 500.725 425.581 500.578C425.78 500.42 425.982 500.267 426.188 500.12C426.387 499.962 426.557 499.833 426.698 499.733L429.19 497.957C429.342 497.848 429.525 497.726 429.739 497.59C429.945 497.443 430.155 497.301 430.37 497.165C430.576 497.018 430.755 496.89 430.907 496.782L433.252 495.111L437.281 498.11L434.707 499.944C434.555 500.052 434.374 500.189 434.165 500.354C433.948 500.509 433.735 500.669 433.525 500.835C433.319 500.982 433.14 501.11 432.988 501.218L428.378 504.503Z" fill="#6D011E"/>
<path d="M433.378 480.296C432.994 480.038 432.634 479.765 432.297 479.479C431.97 479.183 431.686 478.911 431.443 478.664C431.201 478.416 430.93 478.121 430.632 477.778C430.344 477.426 430.074 477.056 429.824 476.666L443.829 462.954C444.457 463.31 445.074 463.797 445.68 464.417C446.38 465.131 446.688 465.818 446.606 466.477C446.523 467.136 446.087 467.853 445.296 468.627L444.324 469.579C444.115 469.784 443.81 470.073 443.41 470.446C443.02 470.809 442.72 471.094 442.51 471.299L438.137 475.58C437.927 475.786 437.637 476.08 437.265 476.462C436.893 476.845 436.598 477.143 436.379 477.358L433.378 480.296ZM440.208 477.696C439.825 477.305 439.49 476.952 439.201 476.638C438.902 476.315 438.557 475.953 438.166 475.552L436.403 473.752L440.718 469.526L442.481 471.327C442.873 471.727 443.228 472.08 443.545 472.385C443.853 472.68 444.198 473.023 444.581 473.414L458.097 487.219C457.791 487.649 457.451 488.065 457.08 488.467C456.708 488.868 456.369 489.218 456.064 489.517C455.769 489.806 455.412 490.137 454.993 490.51C454.584 490.873 454.161 491.203 453.724 491.5L440.208 477.696Z" fill="#6D011E"/>
<path d="M449.45 464.253C449.034 464.051 448.638 463.833 448.265 463.597C447.899 463.35 447.579 463.121 447.304 462.911C447.029 462.7 446.72 462.446 446.376 462.149C446.04 461.841 445.721 461.513 445.418 461.163L457.341 445.606C458.013 445.87 458.693 446.265 459.381 446.792C460.175 447.4 460.578 448.036 460.589 448.701C460.601 449.365 460.27 450.136 459.597 451.014L458.77 452.094C458.591 452.327 458.331 452.656 457.987 453.082C457.652 453.497 457.396 453.821 457.217 454.054L453.494 458.911C453.316 459.144 453.07 459.476 452.756 459.907C452.442 460.339 452.192 460.676 452.005 460.92L449.45 464.253ZM455.844 460.712C455.41 460.379 455.027 460.078 454.697 459.808C454.356 459.529 453.963 459.22 453.519 458.879L451.518 457.346L455.193 452.552L457.193 454.085C457.637 454.426 458.038 454.725 458.396 454.982C458.742 455.231 459.133 455.522 459.566 455.854L474.9 467.607C474.658 468.077 474.381 468.537 474.07 468.987C473.759 469.437 473.473 469.831 473.214 470.17C472.962 470.498 472.656 470.876 472.294 471.304C471.94 471.722 471.568 472.109 471.177 472.465L455.844 460.712Z" fill="#6D011E"/>
<path d="M474.181 443.962C475.131 444.476 476.127 444.946 477.17 445.373C478.218 445.788 479.245 446.063 480.249 446.196C481.259 446.318 482.193 446.202 483.052 445.847C483.899 445.486 484.604 444.784 485.168 443.74C485.733 442.696 485.934 441.721 485.772 440.815C485.598 439.903 485.18 439.063 484.519 438.296C483.864 437.518 483.072 436.809 482.144 436.171C481.222 435.521 480.286 434.94 479.336 434.426C478.386 433.913 477.392 433.451 476.355 433.042C475.313 432.615 474.292 432.344 473.294 432.229C472.29 432.095 471.364 432.209 470.518 432.57C469.659 432.924 468.948 433.623 468.384 434.667C467.819 435.711 467.624 436.689 467.798 437.602C467.96 438.508 468.368 439.35 469.024 440.129C469.674 440.889 470.459 441.594 471.381 442.244C472.298 442.876 473.231 443.449 474.181 443.962ZM471.157 449.557C468.658 448.207 466.674 446.649 465.203 444.884C463.732 443.119 462.887 441.191 462.667 439.102C462.454 437.002 462.981 434.778 464.249 432.432C465.53 430.063 467.11 428.401 468.99 427.447C470.876 426.481 472.957 426.136 475.233 426.411C477.516 426.675 479.895 427.476 482.37 428.814C484.868 430.164 486.858 431.725 488.341 433.496C489.812 435.262 490.66 437.198 490.885 439.305C491.105 441.394 490.577 443.617 489.303 445.975C488.346 447.746 487.216 449.121 485.914 450.1C484.6 451.072 483.155 451.685 481.578 451.939C480.007 452.181 478.339 452.098 476.574 451.69C474.816 451.27 473.01 450.559 471.157 449.557Z" fill="#6D011E"/>
<path d="M485.685 421.335C486.635 421.849 487.631 422.319 488.673 422.746C489.722 423.161 490.748 423.436 491.752 423.569C492.763 423.691 493.697 423.575 494.556 423.22C495.402 422.859 496.108 422.157 496.672 421.113C497.236 420.069 497.438 419.094 497.276 418.188C497.102 417.276 496.684 416.436 496.023 415.669C495.367 414.891 494.576 414.182 493.647 413.544C492.726 412.894 491.79 412.313 490.839 411.799C489.889 411.286 488.896 410.824 487.859 410.415C486.817 409.988 485.796 409.717 484.798 409.602C483.794 409.468 482.868 409.582 482.021 409.943C481.163 410.297 480.452 410.996 479.887 412.04C479.323 413.084 479.128 414.062 479.302 414.975C479.464 415.881 479.872 416.723 480.527 417.502C481.177 418.262 481.963 418.967 482.885 419.617C483.801 420.249 484.735 420.822 485.685 421.335ZM482.661 426.93C480.162 425.58 478.178 424.022 476.707 422.257C475.236 420.492 474.39 418.565 474.171 416.475C473.957 414.375 474.485 412.151 475.753 409.805C477.033 407.436 478.614 405.774 480.494 404.82C482.38 403.854 484.461 403.509 486.737 403.784C489.02 404.048 491.398 404.849 493.873 406.187C496.372 407.537 498.362 409.098 499.845 410.87C501.316 412.635 502.164 414.571 502.389 416.678C502.609 418.767 502.081 420.99 500.807 423.348C499.849 425.119 498.72 426.494 497.418 427.473C496.104 428.445 494.659 429.058 493.082 429.312C491.511 429.554 489.843 429.471 488.078 429.063C486.32 428.643 484.514 427.932 482.661 426.93Z" fill="#6D011E"/>
<path fill-rule="evenodd" clip-rule="evenodd" d="M393.32 284.753L367.542 314.686H276.52C274.971 314.686 273.486 313.971 272.39 312.699C271.295 311.428 270.68 309.703 270.68 307.904C270.68 306.106 271.295 304.381 272.39 303.109C273.486 301.838 274.971 301.123 276.52 301.123H360.698L381.64 276.805V246.873C381.64 239.4 376.402 233.311 369.96 233.311H346.6V246.873H369.96V271.191L355.862 287.561H334.92V219.748H375.8C385.459 219.748 393.32 228.876 393.32 240.092V284.753ZM305.72 372.909L299.88 379.691C296.756 383.305 291.324 383.305 288.2 379.691L282.36 372.909V328.248H305.72V372.909ZM299.88 252.4C303.286 251.007 306.237 248.424 308.328 245.007C310.419 241.589 311.548 237.503 311.56 233.311V219.748H323.24V287.561H299.88V252.4ZM288.2 219.748H299.88V233.311C299.88 235.109 299.265 236.834 298.17 238.106C297.074 239.377 295.589 240.092 294.04 240.092C292.491 240.092 291.006 239.377 289.91 238.106C288.815 236.834 288.2 235.109 288.2 233.311V219.748ZM375.8 206.186H276.52V233.311C276.52 242.14 281.42 249.586 288.2 252.4V287.561H276.52C266.861 287.561 259 296.688 259 307.904C259 316.733 263.9 324.179 270.68 326.994V378.524L279.942 389.279C282.278 391.992 285.128 393.85 288.2 394.942V423.186H299.88V394.942C302.992 393.871 305.828 391.926 308.138 389.279L317.4 378.524V328.248H372.378L405 290.368V240.092C405 221.396 391.901 206.186 375.8 206.186Z" fill="url(#paint0_linear_393_189)"/>
<defs>
<linearGradient id="paint0_linear_393_189" x1="332" y1="206.186" x2="354.05" y2="344.898" gradientUnits="userSpaceOnUse">
<stop stop-color="#E5A62F"/>
<stop offset="1" stop-color="#6D0621"/>
</linearGradient>
</defs>
</svg>
