<svg width="370" height="457" viewBox="0 0 370 457" fill="none" xmlns="http://www.w3.org/2000/svg">
<line x1="17.7885" y1="191.264" x2="17.7885" y2="273.112" stroke="#E5A62F" stroke-width="7"/>
<line x1="347.935" y1="191.264" x2="347.935" y2="273.112" stroke="#E5A62F" stroke-width="7"/>
<path d="M30.7813 113.629C32.6914 114.418 34.1331 115.468 35.1064 116.779C36.0847 118.077 36.6205 119.539 36.7137 121.164C36.812 122.777 36.5022 124.453 35.7845 126.19L33.5396 131.625L29.3804 129.907C29.4983 129.552 29.6875 129.024 29.9479 128.324C30.2083 127.623 30.4698 126.938 30.7324 126.267C30.9877 125.579 31.1688 125.106 31.2757 124.847C31.6982 123.824 31.7822 122.958 31.5277 122.247C31.2609 121.53 30.8268 120.94 30.2254 120.475C29.6116 120.005 29.0028 119.646 28.399 119.396C27.7951 119.147 27.1223 118.977 26.3805 118.887C25.6263 118.792 24.9021 118.904 24.2077 119.223C23.5132 119.542 22.9548 120.213 22.5323 121.236C22.3694 121.63 22.2014 122.037 22.0283 122.456C21.8429 122.87 21.6397 123.327 21.4187 123.827L42.5656 132.562C42.4635 133.054 42.3153 133.569 42.1211 134.109C41.9319 134.637 41.7585 135.092 41.6007 135.474C41.4581 135.819 41.2625 136.258 41.0139 136.79C40.7653 137.322 40.5037 137.798 40.2291 138.218L15.1633 127.864L15.0299 127.506C15.6344 125.938 16.2017 124.478 16.7319 123.124C17.2549 121.753 17.8014 120.378 18.3716 118.998C19.0893 117.26 20.0399 115.849 21.2232 114.766C22.4116 113.67 23.8106 113.007 25.4202 112.778C27.0225 112.531 28.8096 112.814 30.7813 113.629Z" fill="white"/>
<path d="M26.4626 102.924C26.619 102.461 26.8308 101.967 27.0979 101.444C27.3716 100.91 27.6008 100.48 27.7855 100.156C27.9901 99.7966 28.2425 99.3803 28.5427 98.9069C28.8496 98.4218 29.1656 97.988 29.4908 97.6055L53.2319 111.124C53.0689 111.599 52.8572 112.092 52.5967 112.603C52.3427 113.103 52.1135 113.533 51.909 113.892C51.7243 114.216 51.4719 114.632 51.1518 115.141C50.8384 115.637 50.5223 116.071 50.2037 116.442L26.4626 102.924Z" fill="white"/>
<path d="M35.9331 87.9228L35.8761 87.5309L39.2959 82.9458L43.3199 85.9471C43.7688 86.2819 44.1682 86.5715 44.5182 86.8159C44.8682 87.0603 45.2623 87.3459 45.7005 87.6727L55.0311 94.6318C55.4266 94.9268 55.786 95.2032 56.1093 95.461C56.4327 95.7188 56.8028 96.0031 57.2196 96.314L61.2757 99.3392L59.781 101.343C59.1274 102.22 58.3567 102.718 57.469 102.837C56.5893 102.946 55.7059 102.67 54.8188 102.008L35.9331 87.9228ZM53.5863 82.3516C53.9573 82.4787 54.3512 82.6643 54.7678 82.9085C55.1817 83.1341 55.5223 83.3465 55.7895 83.5458C56.0674 83.753 56.3735 84.0229 56.7077 84.3553C57.0392 84.6691 57.324 84.9897 57.5623 85.317L53.7957 90.3671C53.5964 90.6343 53.3174 91.0084 52.9587 91.4894C52.5973 91.9517 52.2239 92.43 51.8385 92.9243C51.4612 93.408 51.1449 93.8209 50.8898 94.1629L47.0101 91.2692C47.2545 90.9192 47.56 90.4984 47.9267 90.0068C48.2907 89.4965 48.6481 89.0062 48.9988 88.5359C49.3468 88.047 49.6205 87.6689 49.8198 87.4017L53.5863 82.3516ZM46.0876 73.8396C46.5068 74.0358 46.8846 74.2428 47.2212 74.4606C47.5578 74.6784 47.865 74.8909 48.1429 75.0981C48.4208 75.3054 48.7349 75.5979 49.0853 75.9756C49.4329 76.3347 49.7459 76.7179 50.0244 77.1251L45.0262 83.8265C44.8269 84.0937 44.5479 84.4678 44.1892 84.9487C43.8278 85.411 43.4544 85.8894 43.069 86.3837C42.6917 86.8674 42.3701 87.2763 42.1043 87.6103L38.0643 84.5971L46.0876 73.8396ZM64.5491 86.3864C65.9065 87.3988 66.7731 88.3778 67.149 89.3235C67.5142 90.2612 67.2145 91.3766 66.2499 92.6699L60.0441 100.99L56.1002 98.049C56.5624 97.3624 57.0046 96.7026 57.427 96.0694C57.8466 95.4177 58.3433 94.707 58.9173 93.9375L64.5491 86.3864Z" fill="white"/>
<path d="M54.2833 72.3331C53.8967 72.0785 53.5338 71.8098 53.1944 71.5269C52.8644 71.2346 52.5769 70.9659 52.3318 70.7208C52.0867 70.4756 51.8133 70.1833 51.5116 69.8439C51.2194 69.495 50.946 69.1273 50.6915 68.7407L64.5518 54.8825C65.1835 55.2314 65.8057 55.7123 66.4184 56.3251C67.1255 57.0323 67.4413 57.7159 67.3658 58.3758C67.2903 59.0358 66.8613 59.757 66.0787 60.5395L65.117 61.5011C64.9095 61.7085 64.6078 62.0007 64.2118 62.3778C63.8252 62.7455 63.5282 63.033 63.3208 63.2404L58.993 67.5676C58.7855 67.775 58.498 68.0719 58.1302 68.4585C57.7625 68.845 57.4702 69.1467 57.2534 69.3635L54.2833 72.3331ZM61.0859 69.6608C60.6993 69.2742 60.3599 68.9253 60.0677 68.6142C59.766 68.2936 59.4172 67.9353 59.0213 67.5393L57.2395 65.7572L61.5107 61.4866L63.2925 63.2687C63.6885 63.6647 64.0467 64.0136 64.3672 64.3153C64.6783 64.6076 65.0272 64.947 65.4137 65.3336L79.0739 78.9959C78.7722 79.4296 78.4375 79.8491 78.0697 80.2545C77.702 80.6599 77.3673 81.0134 77.0656 81.3151C76.7733 81.6073 76.4197 81.942 76.0048 82.3191C75.5994 82.6868 75.1798 83.0214 74.7461 83.3231L61.0859 69.6608Z" fill="white"/>
<path d="M71.8461 55.4814C71.4987 55.1756 71.1766 54.8591 70.8797 54.5318C70.5936 54.1966 70.3461 53.8905 70.1374 53.6137C69.9287 53.3369 69.6985 53.0095 69.4469 52.6315C69.2059 52.2454 68.9862 51.8433 68.7879 51.4251L84.438 39.6254C85.0151 40.0586 85.5645 40.6212 86.0863 41.3132C86.6883 42.1117 86.9061 42.8325 86.7398 43.4756C86.5734 44.1187 86.0484 44.7733 85.1647 45.4396L84.0788 46.2583C83.8446 46.4349 83.5052 46.6825 83.0607 47.0009C82.6268 47.3114 82.2927 47.5549 82.0585 47.7315L77.1719 51.4159C76.9376 51.5925 76.6116 51.8466 76.1938 52.1784C75.776 52.5101 75.4446 52.7683 75.1997 52.9529L71.8461 55.4814ZM78.9539 53.7794C78.6247 53.3429 78.3371 52.9503 78.0909 52.6015C77.8366 52.2422 77.5409 51.8389 77.2038 51.3918L75.6867 49.3796L80.5095 45.7434L82.0266 47.7556C82.3637 48.2027 82.6701 48.5979 82.9456 48.9412C83.2131 49.2739 83.5114 49.6585 83.8405 50.095L95.4717 65.5215C95.1127 65.9091 94.7229 66.2781 94.3025 66.6285C93.882 66.9789 93.5015 67.2825 93.1608 67.5394C92.8307 67.7882 92.4341 68.0706 91.9709 68.3864C91.5184 68.6942 91.0564 68.9674 90.585 69.2059L78.9539 53.7794Z" fill="white"/>
<path d="M112.665 33.4759C113.275 34.6016 113.597 35.7158 113.633 36.8183C113.68 37.9145 113.528 38.9366 113.177 39.8847C112.832 40.8146 112.38 41.6048 111.822 42.2553C112.599 42.1227 113.361 42.2263 114.105 42.5661C114.85 42.9059 115.564 43.3839 116.246 44.0002L119.066 46.5219C119.576 46.9886 120.09 47.3628 120.606 47.6444C121.127 47.9079 121.649 48.0878 122.171 48.1843C122.091 48.8193 121.798 49.4701 121.295 50.1367C120.785 50.7916 120.179 51.3094 119.475 51.6901C118.502 52.2168 117.653 52.3428 116.928 52.068C116.208 51.7751 115.388 51.211 114.466 50.3758L111.063 47.2824C110.51 46.7634 109.895 46.3985 109.22 46.1877C108.551 45.9588 107.735 46.1045 106.773 46.6249L102.939 48.7L100.759 44.672C101.204 44.4011 101.754 44.073 102.41 43.6878C103.077 43.2963 103.712 42.9297 104.316 42.588C104.913 42.2346 105.352 41.9817 105.634 41.8294C106.56 41.3281 107.181 40.78 107.495 40.1851C107.816 39.5722 107.924 38.9452 107.819 38.3043C107.715 37.6633 107.501 37.0438 107.177 36.4458C106.835 35.8126 106.427 35.2829 105.954 34.8567C105.48 34.4306 104.906 34.1956 104.23 34.1519C103.56 34.0901 102.762 34.3098 101.836 34.8112C101.589 34.9444 101.314 35.0936 101.009 35.2585C100.704 35.4235 100.387 35.5949 100.059 35.7726C99.7244 35.9385 99.3839 36.1077 99.0374 36.28L109.956 56.4551C109.554 56.7784 109.12 57.0818 108.652 57.3654C108.184 57.6491 107.762 57.8924 107.387 58.0955C107.058 58.2732 106.636 58.4867 106.119 58.7362C105.602 58.9856 105.104 59.1866 104.626 59.3394L91.7184 35.488L91.8409 35.126C93.2994 34.2913 94.7083 33.4909 96.0675 32.725C97.4205 31.9474 98.7536 31.2032 100.067 30.4924C101.697 29.6103 103.297 29.0932 104.867 28.9409C106.431 28.7768 107.887 29.0578 109.235 29.7837C110.576 30.4979 111.72 31.7287 112.665 33.4759Z" fill="white"/>
<path d="M123.378 20.502C123.823 20.2779 124.36 20.036 124.989 19.7761C125.619 19.5162 126.173 19.3036 126.652 19.1381C127.119 18.977 127.68 18.8044 128.335 18.6201C129.004 18.4315 129.58 18.303 130.064 18.2345L147.027 40.8131C146.702 41.1793 146.244 41.5279 145.653 41.859C145.067 42.2028 144.496 42.4704 143.942 42.662C143.034 42.9755 142.25 43.0135 141.59 42.7761C140.925 42.5262 140.203 41.8446 139.424 40.7315L133.05 31.6551C132.378 30.6883 131.605 29.573 130.731 28.3091C129.869 27.0409 129.076 25.8478 128.351 24.7298L128.124 24.8082C128.288 25.8943 128.416 27.1621 128.507 28.6117C128.607 30.0442 128.682 31.3021 128.732 32.3852L129.382 47.3745C129.06 47.5846 128.695 47.7742 128.288 47.943C127.881 48.1119 127.457 48.2726 127.016 48.4249C126.574 48.5773 126.072 48.7156 125.508 48.8398C124.945 48.964 124.471 49.0219 124.087 49.0134L123.775 48.7828L123.378 20.502ZM130.733 40.687C130.556 40.748 130.342 40.822 130.09 40.9091C129.833 40.9835 129.579 41.0643 129.327 41.1514C129.083 41.2215 128.873 41.287 128.697 41.348L125.691 42.3864L125.907 37.2545L128.535 36.3467C128.711 36.2858 128.919 36.214 129.159 36.1312C129.394 36.0359 129.631 35.9469 129.87 35.8642C130.106 35.7688 130.305 35.6929 130.469 35.6363L133.361 34.637C133.538 34.5761 133.748 34.5105 133.991 34.4404C134.231 34.3577 134.473 34.2813 134.716 34.2112C134.956 34.1284 135.164 34.0566 135.34 33.9956L138.062 33.0552L141.079 37.0703L138.092 38.1022C137.915 38.1631 137.703 38.2434 137.456 38.3431C137.204 38.4302 136.954 38.5236 136.706 38.6233C136.467 38.706 136.259 38.7778 136.082 38.8388L130.733 40.687Z" fill="white"/>
<path d="M159.33 36.6532C159.324 35.7829 159.504 34.9073 159.872 34.0264C160.253 33.1441 160.71 32.4218 161.243 31.8593C162.438 32.4232 163.772 32.8996 165.245 33.2884C166.718 33.6772 168.157 33.8013 169.563 33.6608C170.784 33.5388 171.644 33.1647 172.145 32.5385C172.643 31.8991 172.858 31.2278 172.787 30.5246C172.737 30.0205 172.518 29.5064 172.131 28.9823C171.755 28.4436 170.981 27.9984 169.807 27.6468L164.81 26.1161C163.095 25.5906 161.644 24.8111 160.455 23.7775C159.28 22.7426 158.598 21.2832 158.41 19.3992C158.247 17.7674 158.528 16.2921 159.254 14.9734C159.98 13.6546 161.031 12.5781 162.408 11.7437C163.799 10.9079 165.39 10.4005 167.181 10.2215C169.038 10.0359 170.807 10.1004 172.486 10.4149C174.166 10.7294 175.55 11.107 176.639 11.5475C176.673 12.4152 176.544 13.2789 176.255 14.1386C175.965 14.985 175.555 15.7094 175.025 16.3116C173.955 15.9229 172.729 15.5964 171.35 15.3323C169.97 15.0682 168.749 14.9892 167.688 15.0953C166.507 15.2133 165.672 15.5714 165.182 16.1698C164.706 16.7667 164.498 17.3704 164.559 17.9807C164.615 18.5379 164.85 19.0102 165.264 19.3977C165.69 19.7705 166.365 20.0982 167.292 20.3809L172.37 21.9235C173.682 22.315 174.822 22.8577 175.789 23.5516C176.768 24.2309 177.539 25.0449 178.103 25.9935C178.679 26.9276 179.025 27.9717 179.14 29.126C179.299 30.7181 179.057 32.1894 178.415 33.5399C177.786 34.8892 176.739 36.0122 175.275 36.9089C173.823 37.8044 171.943 38.3675 169.635 38.5982C168.016 38.7599 166.279 38.6789 164.425 38.3551C162.582 38.0166 160.884 37.4494 159.33 36.6532Z" fill="white"/>
<path d="M190.316 23.7577C190.25 24.8357 190.243 25.9373 190.294 27.0625C190.359 28.1886 190.542 29.235 190.843 30.2019C191.158 31.1696 191.657 31.9683 192.34 32.5978C193.024 33.214 193.958 33.5584 195.142 33.6308C196.327 33.7033 197.296 33.4754 198.049 32.9471C198.804 32.4055 199.39 31.6732 199.807 30.7503C200.237 29.8282 200.546 28.8119 200.735 27.7013C200.936 26.5915 201.07 25.4977 201.136 24.4197C201.202 23.3417 201.202 22.2463 201.137 21.1336C201.085 20.0083 200.902 18.9685 200.586 18.0141C200.284 17.0473 199.792 16.2557 199.108 15.6395C198.425 15.0099 197.492 14.6589 196.307 14.5865C195.123 14.514 194.153 14.7486 193.399 15.2902C192.645 15.8184 192.053 16.5436 191.623 17.4657C191.206 18.3754 190.898 19.385 190.696 20.4948C190.509 21.5921 190.382 22.6797 190.316 23.7577ZM183.968 23.3693C184.141 20.5346 184.719 18.0786 185.701 16.0014C186.683 13.9242 188.075 12.3462 189.878 11.2676C191.694 10.1898 193.933 9.73238 196.594 9.89522C199.283 10.0597 201.455 10.7937 203.112 12.0974C204.782 13.4018 205.971 15.1443 206.679 17.325C207.401 19.5064 207.676 22.0012 207.504 24.8093C207.33 27.644 206.752 30.1066 205.77 32.1972C204.787 34.2744 203.388 35.8586 201.571 36.9497C199.769 38.0283 197.53 38.4857 194.855 38.3221C192.846 38.1991 191.123 37.7531 189.687 36.984C188.252 36.2016 187.088 35.1485 186.194 33.8247C185.313 32.5018 184.686 30.954 184.314 29.1813C183.955 27.4094 183.839 25.472 183.968 23.3693Z" fill="white"/>
<path d="M216.77 41.0495L214.25 40.4954C213.195 40.2634 212.423 39.7727 211.932 39.0232C211.445 38.2607 211.321 37.3325 211.562 36.2386L216.678 12.9745L217.011 12.7612L219.199 13.2423C220.358 13.4971 221.164 13.9885 221.619 14.7164C222.086 15.4472 222.174 16.4767 221.882 17.8049L216.77 41.0495ZM228.448 38.2318C228.029 40.1331 227.43 41.4006 226.649 42.0343C225.871 42.655 224.746 42.8035 223.274 42.4799L214.25 40.4954L212.015 35.4784C213.719 35.5527 215.393 35.7023 217.036 35.9272C218.693 36.1549 220.191 36.4163 221.533 36.7112L228.448 38.2318Z" fill="white"/>
<path d="M248.998 27.486C249.103 27.0351 249.229 26.6014 249.376 26.1849C249.535 25.774 249.688 25.411 249.832 25.096C249.977 24.781 250.156 24.4231 250.37 24.0223C250.595 23.6271 250.845 23.243 251.119 22.8701L268.929 31.0541C268.821 31.7676 268.586 32.5181 268.224 33.3056C267.807 34.2142 267.276 34.7478 266.63 34.9062C265.985 35.0647 265.16 34.9129 264.154 34.4508L262.919 33.8829C262.652 33.7604 262.273 33.579 261.782 33.3386C261.303 33.1038 260.93 32.9252 260.664 32.8027L255.103 30.2473C254.836 30.1248 254.458 29.9583 253.968 29.7477C253.478 29.5371 253.093 29.3678 252.814 29.2397L248.998 27.486ZM253.867 32.9369C254.095 32.4402 254.304 32.0007 254.495 31.6186C254.69 31.2244 254.905 30.7728 255.139 30.264L256.191 27.9742L261.68 30.4962L260.627 32.786C260.394 33.2948 260.191 33.7519 260.019 34.1573C259.853 34.5506 259.656 34.9956 259.428 35.4923L251.361 53.0475C250.849 52.9152 250.34 52.747 249.832 52.543C249.324 52.3389 248.876 52.1478 248.488 51.9697C248.113 51.7971 247.676 51.5818 247.178 51.3237C246.693 51.0712 246.233 50.794 245.8 50.4921L253.867 32.9369Z" fill="white"/>
<path d="M281.314 38.7298C281.763 38.9459 282.282 39.2246 282.871 39.5658C283.461 39.907 283.967 40.2172 284.39 40.4963C284.802 40.7681 285.28 41.1079 285.826 41.5159C286.382 41.9313 286.835 42.3101 287.184 42.6524L279.604 69.8566C279.116 69.8218 278.56 69.6709 277.938 69.4038C277.308 69.1478 276.748 68.8582 276.258 68.535C275.457 68.0062 274.95 67.4076 274.736 66.7392C274.529 66.0597 274.63 65.0719 275.039 63.7757L278.357 53.1934C278.714 52.0712 279.128 50.7787 279.599 49.3158C280.08 47.8603 280.544 46.5047 280.989 45.249L280.789 45.1168C280.027 45.908 279.099 46.7813 278.005 47.7367C276.929 48.6883 275.977 49.5136 275.148 50.2126L263.655 59.8561C263.292 59.7283 262.919 59.5544 262.537 59.3342C262.155 59.1141 261.77 58.8755 261.38 58.6184C260.991 58.3613 260.575 58.047 260.133 57.6756C259.692 57.3041 259.357 56.9635 259.13 56.6539L259.123 56.2657L281.314 38.7298ZM269.782 56.8548C269.626 56.752 269.437 56.6271 269.214 56.4802C268.999 56.3222 268.78 56.1697 268.557 56.0228C268.353 55.8721 268.173 55.7454 268.018 55.6426L265.364 53.8907L269.566 50.9371L271.886 52.4686C272.042 52.5714 272.225 52.6926 272.437 52.8322C272.656 52.9606 272.871 53.0946 273.082 53.2341C273.301 53.3626 273.483 53.4745 273.627 53.57L276.181 55.2557C276.337 55.3586 276.517 55.4853 276.721 55.636C276.932 55.7756 277.14 55.9207 277.344 56.0714C277.556 56.2109 277.739 56.3321 277.895 56.435L280.299 58.0215L278.951 62.8592L276.313 61.1184C276.158 61.0155 275.965 60.8962 275.735 60.7605C275.512 60.6136 275.286 60.4722 275.056 60.3364C274.845 60.1969 274.661 60.0757 274.505 59.9729L269.782 56.8548Z" fill="white"/>
<path d="M294.779 54.5769C295.015 54.1783 295.265 53.8025 295.531 53.4496C295.806 53.1056 296.061 52.8051 296.293 52.5482C296.526 52.2913 296.805 52.0038 297.129 51.6858C297.463 51.3767 297.817 51.0855 298.19 50.8122L312.715 63.9718C312.398 64.6199 311.949 65.2651 311.367 65.9073C310.695 66.6484 310.028 66.9976 309.365 66.9547C308.702 66.9119 307.961 66.519 307.141 65.776L306.133 64.8629C305.915 64.6659 305.609 64.379 305.212 64.0021C304.826 63.6341 304.524 63.3516 304.307 63.1547L299.771 59.0457C299.554 58.8487 299.243 58.5762 298.839 58.228C298.435 57.8798 298.119 57.6027 297.892 57.3968L294.779 54.5769ZM297.784 61.2393C298.151 60.8342 298.483 60.478 298.779 60.1707C299.084 59.8536 299.425 59.4876 299.801 59.0725L301.493 57.205L305.969 61.2603L304.277 63.1278C303.901 63.5429 303.571 63.9179 303.285 64.2529C303.008 64.5781 302.687 64.9432 302.32 65.3483L289.348 79.6661C288.9 79.3862 288.464 79.0726 288.041 78.7253C287.618 78.378 287.249 78.0611 286.933 77.7747C286.626 77.4972 286.275 77.1605 285.877 76.7648C285.49 76.378 285.135 75.9754 284.813 75.5571L297.784 61.2393Z" fill="white"/>
<path d="M312.478 71.2865C312.766 70.9244 313.066 70.587 313.378 70.2744C313.699 69.972 313.993 69.7098 314.259 69.4876C314.525 69.2655 314.841 69.0195 315.206 68.7495C315.58 68.4898 315.97 68.2505 316.378 68.0317L328.936 83.0805C328.532 83.6783 327.997 84.2548 327.331 84.8101C326.564 85.4508 325.854 85.7039 325.204 85.5695C324.553 85.435 323.874 84.943 323.165 84.0933L322.293 83.0491C322.105 82.8239 321.841 82.4971 321.501 82.0688C321.17 81.6508 320.91 81.3292 320.722 81.104L316.801 76.4051C316.613 76.1798 316.343 75.8668 315.991 75.4658C315.639 75.0649 315.365 74.7467 315.169 74.5112L312.478 71.2865ZM314.528 78.3015C314.948 77.9513 315.326 77.6446 315.662 77.3815C316.009 77.1098 316.397 76.7946 316.827 76.4358L318.762 74.8212L322.631 79.4587L320.697 81.0733C320.267 81.432 319.887 81.7575 319.558 82.0497C319.239 82.3333 318.869 82.6502 318.45 83.0004L303.616 95.3787C303.211 95.0392 302.823 94.6682 302.452 94.2655C302.082 93.8629 301.76 93.4978 301.486 93.1702C301.221 92.8528 300.92 92.4706 300.582 92.0236C300.252 91.5868 299.956 91.1388 299.695 90.6798L314.528 78.3015Z" fill="white"/>
<path d="M324.438 101.21C323.512 101.765 322.599 102.382 321.7 103.061C320.808 103.751 320.049 104.494 319.422 105.29C318.802 106.097 318.426 106.96 318.293 107.879C318.171 108.791 318.415 109.756 319.026 110.774C319.636 111.792 320.372 112.462 321.234 112.785C322.107 113.101 323.042 113.17 324.039 112.992C325.043 112.825 326.056 112.506 327.079 112.033C328.108 111.571 329.086 111.063 330.012 110.507C330.938 109.952 331.842 109.333 332.722 108.649C333.621 107.971 334.375 107.231 334.983 106.431C335.61 105.635 335.984 104.782 336.106 103.869C336.239 102.95 336 101.982 335.39 100.964C334.78 99.946 334.038 99.2792 333.165 98.9633C332.303 98.6405 331.37 98.5624 330.366 98.729C329.38 98.9001 328.373 99.2164 327.344 99.678C326.333 100.144 325.364 100.655 324.438 101.21ZM321.168 95.7552C323.604 94.2949 325.956 93.3823 328.224 93.0173C330.493 92.6523 332.582 92.908 334.491 93.7845C336.407 94.6724 338.05 96.26 339.421 98.5471C340.806 100.857 341.43 103.064 341.292 105.168C341.16 107.283 340.396 109.249 338.998 111.066C337.607 112.895 335.705 114.533 333.292 115.979C330.856 117.44 328.499 118.356 326.219 118.728C323.95 119.093 321.852 118.835 319.925 117.954C318.016 117.077 316.372 115.489 314.994 113.191C313.959 111.464 313.353 109.791 313.175 108.172C313.009 106.546 313.218 104.99 313.804 103.504C314.397 102.03 315.319 100.637 316.57 99.3275C317.829 98.0292 319.361 96.8384 321.168 95.7552Z" fill="white"/>
<path d="M334.944 126.724C334.018 127.279 333.105 127.896 332.206 128.575C331.314 129.265 330.555 130.008 329.928 130.804C329.308 131.611 328.931 132.474 328.798 133.393C328.677 134.305 328.921 135.27 329.531 136.288C330.141 137.306 330.877 137.976 331.739 138.299C332.613 138.615 333.548 138.684 334.545 138.506C335.549 138.339 336.562 138.019 337.584 137.546C338.614 137.085 339.591 136.576 340.518 136.021C341.444 135.466 342.347 134.846 343.228 134.163C344.127 133.484 344.881 132.745 345.489 131.945C346.116 131.149 346.49 130.295 346.612 129.383C346.745 128.464 346.506 127.495 345.896 126.477C345.286 125.46 344.544 124.793 343.671 124.477C342.809 124.154 341.876 124.076 340.872 124.243C339.886 124.414 338.879 124.73 337.85 125.192C336.839 125.658 335.87 126.168 334.944 126.724ZM331.674 121.269C334.11 119.809 336.462 118.896 338.73 118.531C340.999 118.166 343.087 118.422 344.996 119.298C346.912 120.186 348.556 121.774 349.927 124.061C351.312 126.371 351.935 128.578 351.797 130.681C351.666 132.796 350.902 134.763 349.504 136.58C348.113 138.409 346.211 140.047 343.798 141.493C341.362 142.953 339.004 143.869 336.724 144.241C334.456 144.606 332.358 144.348 330.431 143.467C328.522 142.591 326.878 141.003 325.5 138.705C324.465 136.978 323.858 135.305 323.681 133.686C323.514 132.06 323.724 130.504 324.31 129.018C324.903 127.543 325.825 126.151 327.076 124.841C328.334 123.543 329.867 122.352 331.674 121.269Z" fill="white"/>
<path d="M35.1816 335.615C33.2724 336.406 31.5103 336.682 29.8954 336.442C28.2856 336.214 26.8735 335.558 25.6591 334.474C24.4499 333.402 23.4854 331.998 22.7656 330.261L20.5144 324.829L24.6715 323.106C24.8391 323.441 25.0781 323.948 25.3886 324.627C25.6991 325.307 25.9984 325.977 26.2864 326.637C26.5918 327.304 26.7981 327.767 26.9053 328.026C27.329 329.048 27.882 329.721 28.5645 330.044C29.2593 330.362 29.9837 330.473 30.7377 330.377C31.5041 330.276 32.189 330.101 32.7926 329.851C33.3961 329.6 33.9922 329.245 34.5807 328.785C35.1816 328.319 35.6151 327.728 35.881 327.012C36.147 326.295 36.0682 325.426 35.6445 324.404C35.4811 324.01 35.3127 323.603 35.1391 323.184C34.9778 322.76 34.7987 322.293 34.6018 321.783L13.4651 330.543C13.19 330.123 12.9303 329.653 12.6862 329.134C12.4472 328.627 12.2485 328.182 12.0903 327.8C11.9473 327.456 11.7759 327.007 11.5759 326.455C11.3759 325.903 11.2246 325.381 11.122 324.889L36.1756 314.506L36.523 314.665C37.2031 316.202 37.8337 317.637 38.4148 318.969C39.0133 320.309 39.5984 321.668 40.1701 323.048C40.8899 324.784 41.2139 326.454 41.1421 328.057C41.0755 329.673 40.5537 331.13 39.5769 332.43C38.6175 333.737 37.1524 334.798 35.1816 335.615Z" fill="white"/>
<path d="M46.8253 337.416C47.1453 337.786 47.4629 338.219 47.7781 338.714C48.1 339.221 48.3539 339.637 48.5399 339.96C48.7457 340.319 48.9765 340.748 49.2322 341.246C49.4946 341.757 49.7081 342.249 49.8728 342.724L26.181 356.328C25.8544 355.947 25.5368 355.514 25.2282 355.03C24.9262 354.558 24.6723 354.142 24.4665 353.784C24.2806 353.46 24.0498 353.032 23.7741 352.498C23.5051 351.976 23.2916 351.484 23.1335 351.021L46.8253 337.416Z" fill="white"/>
<path d="M53.9833 350.032L54.3755 350.087L57.8229 354.651L53.8171 357.677C53.3703 358.015 52.9806 358.317 52.6482 358.585C52.3157 358.853 51.9314 359.151 51.4952 359.481L42.2069 366.496C41.8132 366.794 41.4474 367.062 41.1096 367.3C40.7717 367.539 40.3953 367.814 39.9804 368.128L35.9426 371.178L34.4359 369.183C33.7769 368.31 33.514 367.431 33.647 366.545C33.788 365.67 34.3001 364.899 35.1832 364.232L53.9833 350.032ZM54.4018 368.539C54.1762 368.86 53.888 369.186 53.5371 369.518C53.2049 369.852 52.9058 370.12 52.6398 370.321C52.3632 370.53 52.0186 370.749 51.6061 370.977C51.2122 371.207 50.8248 371.391 50.4439 371.529L46.6469 366.501C46.446 366.235 46.1647 365.863 45.8031 365.384C45.4602 364.908 45.1052 364.416 44.7381 363.908C44.3791 363.41 44.071 362.991 43.8139 362.651L47.676 359.734C47.9438 360.066 48.2625 360.477 48.6322 360.967C49.0205 361.459 49.3915 361.939 49.7451 362.407C50.1173 362.878 50.4039 363.246 50.6048 363.512L54.4018 368.539ZM64.6696 363.716C64.3641 364.064 64.0598 364.369 63.7567 364.631C63.4536 364.894 63.1637 365.129 62.8871 365.338C62.6104 365.547 62.2418 365.767 61.7813 365.998C61.3394 366.232 60.8841 366.425 60.4152 366.579L55.3767 359.908C55.1758 359.642 54.8945 359.269 54.5329 358.791C54.1899 358.314 53.8349 357.822 53.4679 357.314C53.1089 356.817 52.8061 356.394 52.5596 356.045L56.5813 353.008L64.6696 363.716ZM47.4656 377.939C46.1143 378.959 44.9322 379.518 43.9192 379.615C42.9168 379.703 41.9295 379.104 40.9571 377.817L34.7011 369.534L38.6271 366.568C39.1572 367.204 39.6673 367.813 40.1573 368.395C40.6659 368.98 41.2095 369.656 41.7881 370.422L47.4656 377.939Z" fill="white"/>
<path d="M63.58 370.218C63.8311 369.829 64.0965 369.464 64.3763 369.122C64.6656 368.789 64.9317 368.499 65.1746 368.252C65.4176 368.005 65.7074 367.729 66.0441 367.424C66.3903 367.128 66.7555 366.852 67.1398 366.594L81.1227 380.328C80.7795 380.963 80.3043 381.59 79.697 382.208C78.9962 382.921 78.3156 383.243 77.655 383.174C76.9943 383.104 76.2693 382.682 75.4798 381.906L74.5095 380.953C74.3002 380.748 74.0053 380.449 73.6246 380.056C73.2535 379.673 72.9633 379.378 72.754 379.173L68.3879 374.884C68.1786 374.679 67.8791 374.394 67.4892 374.03C67.0994 373.665 66.7951 373.376 66.5763 373.161L63.58 370.218ZM66.3137 376.996C66.6968 376.606 67.0426 376.263 67.3511 375.968C67.6689 375.664 68.024 375.312 68.4164 374.912L70.1823 373.115L74.4913 377.347L72.7255 379.145C72.3331 379.544 71.9874 379.906 71.6886 380.229C71.3992 380.543 71.0629 380.895 70.6798 381.285L57.1415 395.068C56.7051 394.77 56.2826 394.439 55.8739 394.075C55.4652 393.711 55.1087 393.379 54.8043 393.08C54.5094 392.791 54.1715 392.44 53.7907 392.029C53.4194 391.627 53.081 391.21 52.7754 390.779L66.3137 376.996Z" fill="white"/>
<path d="M79.9339 385.976C80.1274 385.556 80.3384 385.157 80.567 384.778C80.8063 384.408 81.0287 384.084 81.2342 383.804C81.4397 383.525 81.6875 383.211 81.9777 382.862C82.2786 382.52 82.601 382.195 82.9448 381.885L98.731 393.502C98.4811 394.179 98.0994 394.866 97.5857 395.564C96.993 396.37 96.3647 396.785 95.7009 396.809C95.0371 396.834 94.2595 396.519 93.3682 395.863L92.2728 395.057C92.0366 394.883 91.7023 394.628 91.2699 394.294C90.8482 393.967 90.5193 393.716 90.283 393.543L85.3539 389.915C85.1176 389.741 84.7808 389.502 84.3433 389.196C83.9058 388.891 83.5636 388.647 83.3166 388.466L79.9339 385.976ZM83.5994 392.299C83.9235 391.859 84.2173 391.471 84.4809 391.135C84.7524 390.789 85.0542 390.39 85.3861 389.939L86.8797 387.909L91.7444 391.489L90.2508 393.519C89.9189 393.97 89.6279 394.377 89.3778 394.739C89.1357 395.09 88.8526 395.486 88.5286 395.927L77.0774 411.487C76.6033 411.254 76.1382 410.986 75.6821 410.684C75.226 410.381 74.8261 410.104 74.4825 409.851C74.1496 409.606 73.7655 409.307 73.3303 408.953C72.9058 408.608 72.5118 408.243 72.1483 407.86L83.5994 392.299Z" fill="white"/>
<path d="M116.15 412.432C115.557 413.567 114.813 414.457 113.919 415.103C113.037 415.755 112.104 416.201 111.122 416.44C110.158 416.673 109.25 416.74 108.399 416.642C108.944 417.212 109.283 417.901 109.418 418.708C109.553 419.516 109.555 420.375 109.426 421.285L108.911 425.033C108.81 425.717 108.787 426.352 108.842 426.937C108.915 427.517 109.057 428.05 109.269 428.537C108.698 428.825 107.995 428.947 107.161 428.902C106.333 428.846 105.564 428.632 104.855 428.262C103.874 427.749 103.295 427.116 103.118 426.361C102.958 425.601 102.967 424.605 103.144 423.374L103.807 418.823C103.928 418.074 103.887 417.36 103.684 416.683C103.499 416 102.923 415.405 101.953 414.899L98.0892 412.88L100.21 408.82C100.683 409.037 101.263 409.31 101.949 409.639C102.647 409.973 103.306 410.295 103.927 410.604C104.553 410.902 105.009 411.124 105.292 411.273C106.226 411.76 107.027 411.968 107.696 411.897C108.384 411.82 108.964 411.559 109.437 411.114C109.91 410.669 110.304 410.145 110.619 409.543C110.952 408.904 111.163 408.27 111.252 407.64C111.341 407.009 111.215 406.401 110.873 405.817C110.55 405.227 109.921 404.688 108.988 404.2C108.74 404.07 108.462 403.925 108.155 403.764C107.847 403.604 107.528 403.437 107.197 403.264C106.873 403.08 106.542 402.892 106.206 402.701L95.5822 423.033C95.0899 422.881 94.5954 422.69 94.0985 422.461C93.6016 422.231 93.1641 422.018 92.786 421.82C92.4551 421.647 92.0417 421.416 91.5459 421.127C91.0501 420.838 90.6052 420.538 90.2112 420.227L102.77 396.19L103.139 396.089C104.646 396.832 106.098 397.552 107.493 398.251C108.894 398.938 110.256 399.627 111.58 400.319C113.222 401.177 114.546 402.215 115.55 403.431C116.56 404.636 117.141 406 117.293 407.524C117.451 409.035 117.07 410.672 116.15 412.432Z" fill="white"/>
<path d="M131.374 409.131C131.864 409.221 132.438 409.352 133.097 409.524C133.756 409.697 134.327 409.862 134.808 410.019C135.277 410.171 135.829 410.372 136.463 410.621C137.11 410.874 137.647 411.119 138.075 411.356L137.984 439.596C137.504 439.693 136.929 439.694 136.258 439.602C135.582 439.522 134.966 439.392 134.408 439.21C133.495 438.913 132.847 438.47 132.464 437.882C132.084 437.282 131.919 436.303 131.969 434.945L132.361 423.861C132.408 422.685 132.464 421.329 132.529 419.793C132.607 418.262 132.694 416.832 132.791 415.503L132.562 415.429C132.038 416.394 131.375 417.482 130.573 418.694C129.789 419.896 129.09 420.945 128.476 421.839L119.953 434.186C119.569 434.159 119.164 434.09 118.737 433.98C118.311 433.869 117.876 433.741 117.432 433.596C116.988 433.452 116.504 433.259 115.98 433.018C115.455 432.777 115.042 432.538 114.741 432.299L114.631 431.927L131.374 409.131ZM125.064 429.667C124.887 429.609 124.671 429.539 124.418 429.456C124.168 429.361 123.917 429.272 123.663 429.19C123.426 429.098 123.219 429.024 123.042 428.966L120.018 427.981L123.286 424.018L125.929 424.879C126.107 424.937 126.316 425.005 126.557 425.084C126.802 425.15 127.045 425.222 127.286 425.3C127.531 425.366 127.736 425.426 127.9 425.479L130.81 426.427C130.988 426.485 131.195 426.559 131.431 426.651C131.672 426.729 131.911 426.814 132.148 426.905C132.389 426.983 132.598 427.052 132.775 427.109L135.514 428.001L135.498 433.023L132.493 432.045C132.316 431.987 132.098 431.923 131.84 431.853C131.587 431.77 131.331 431.694 131.073 431.624C130.833 431.546 130.623 431.478 130.446 431.42L125.064 429.667Z" fill="white"/>
<path d="M158.152 441.383C158.298 440.525 158.63 439.695 159.147 438.893C159.677 438.091 160.254 437.46 160.878 437.001C161.955 437.766 163.185 438.47 164.566 439.112C165.947 439.753 167.342 440.129 168.752 440.238C169.975 440.333 170.887 440.116 171.49 439.588C172.094 439.046 172.423 438.423 172.477 437.718C172.516 437.213 172.391 436.668 172.102 436.084C171.827 435.488 171.143 434.913 170.049 434.361L165.4 431.975C163.805 431.156 162.513 430.133 161.525 428.906C160.55 427.681 160.135 426.124 160.282 424.236C160.408 422.601 160.945 421.199 161.891 420.028C162.838 418.858 164.062 417.983 165.565 417.404C167.081 416.826 168.736 416.606 170.531 416.745C172.392 416.889 174.121 417.264 175.719 417.869C177.317 418.474 178.614 419.09 179.608 419.715C179.488 420.575 179.21 421.403 178.774 422.198C178.339 422.98 177.808 423.621 177.181 424.121C176.195 423.55 175.047 423.013 173.735 422.51C172.423 422.007 171.236 421.715 170.172 421.632C168.989 421.541 168.104 421.746 167.517 422.249C166.943 422.753 166.632 423.311 166.585 423.922C166.541 424.48 166.69 424.987 167.029 425.441C167.382 425.883 167.99 426.324 168.852 426.766L173.58 429.178C174.803 429.794 175.829 430.529 176.659 431.382C177.503 432.223 178.119 433.16 178.507 434.193C178.91 435.214 179.066 436.303 178.977 437.459C178.853 439.054 178.356 440.46 177.487 441.677C176.63 442.894 175.402 443.815 173.802 444.44C172.216 445.067 170.266 445.29 167.953 445.111C166.331 444.985 164.636 444.6 162.867 443.955C161.113 443.297 159.541 442.44 158.152 441.383Z" fill="white"/>
<path d="M191.808 431.257C191.901 432.333 192.056 433.423 192.272 434.529C192.502 435.633 192.837 436.641 193.278 437.553C193.731 438.464 194.342 439.181 195.11 439.703C195.877 440.212 196.852 440.415 198.034 440.312C199.216 440.21 200.141 439.842 200.809 439.208C201.476 438.561 201.947 437.751 202.224 436.777C202.514 435.801 202.67 434.75 202.693 433.624C202.729 432.497 202.7 431.395 202.607 430.319C202.514 429.243 202.353 428.16 202.124 427.069C201.908 425.963 201.573 424.962 201.121 424.064C200.68 423.152 200.076 422.442 199.309 421.933C198.541 421.411 197.566 421.201 196.384 421.304C195.202 421.406 194.277 421.781 193.611 422.428C192.943 423.061 192.464 423.866 192.174 424.841C191.896 425.802 191.739 426.846 191.703 427.973C191.679 429.086 191.714 430.181 191.808 431.257ZM185.471 431.807C185.226 428.977 185.436 426.463 186.102 424.264C186.767 422.065 187.912 420.299 189.536 418.967C191.174 417.634 193.321 416.852 195.978 416.621C198.661 416.388 200.918 416.795 202.748 417.84C204.592 418.885 206.025 420.433 207.046 422.486C208.081 424.538 208.72 426.965 208.963 429.768C209.209 432.597 208.999 435.118 208.335 437.33C207.669 439.529 206.518 441.302 204.882 442.649C203.258 443.981 201.111 444.763 198.441 444.995C196.435 445.169 194.665 444.981 193.132 444.432C191.598 443.869 190.291 442.999 189.212 441.821C188.146 440.642 187.298 439.203 186.669 437.505C186.053 435.805 185.654 433.906 185.471 431.807Z" fill="white"/>
<path d="M225.67 440.024L223.167 440.65C222.119 440.912 221.209 440.816 220.436 440.364C219.66 439.898 219.136 439.122 218.864 438.035L213.087 414.926L213.29 414.587L215.463 414.044C216.615 413.756 217.556 413.837 218.286 414.286C219.03 414.732 219.567 415.615 219.897 416.935L225.67 440.024ZM234.871 432.301C235.343 434.19 235.371 435.592 234.954 436.507C234.533 437.409 233.592 438.043 232.131 438.409L223.167 440.65L218.932 437.152C220.491 436.46 222.056 435.849 223.627 435.319C225.212 434.785 226.67 434.352 228.003 434.019L234.871 432.301Z" fill="white"/>
<path d="M245.142 410.406C244.856 410.042 244.597 409.672 244.364 409.296C244.144 408.915 243.956 408.569 243.801 408.259C243.646 407.949 243.479 407.585 243.3 407.168C243.133 406.744 242.99 406.309 242.871 405.862L260.403 397.099C260.892 397.63 261.33 398.283 261.718 399.058C262.165 399.953 262.248 400.701 261.968 401.303C261.688 401.905 261.052 402.454 260.063 402.949L258.846 403.557C258.584 403.688 258.205 403.87 257.71 404.102C257.227 404.329 256.854 404.507 256.592 404.639L251.118 407.375C250.855 407.506 250.488 407.696 250.017 407.947C249.546 408.197 249.173 408.391 248.899 408.528L245.142 410.406ZM252.441 410.022C252.196 409.533 251.985 409.095 251.806 408.707C251.621 408.308 251.404 407.858 251.153 407.357L250.027 405.103L255.43 402.402L256.556 404.656C256.806 405.157 257.036 405.602 257.245 405.989C257.447 406.365 257.671 406.797 257.915 407.286L266.552 424.568C266.129 424.884 265.679 425.176 265.202 425.444C264.725 425.713 264.295 425.942 263.914 426.133C263.544 426.318 263.103 426.523 262.59 426.75C262.089 426.97 261.585 427.155 261.078 427.304L252.441 410.022Z" fill="white"/>
<path d="M269.485 391.062C269.848 390.721 270.295 390.337 270.825 389.91C271.356 389.483 271.828 389.122 272.24 388.828C272.642 388.542 273.131 388.218 273.708 387.856C274.296 387.486 274.813 387.2 275.258 386.997L297.91 403.862C297.702 404.305 297.361 404.769 296.888 405.253C296.422 405.749 295.95 406.167 295.473 406.507C294.691 407.064 293.95 407.322 293.249 407.281C292.541 407.229 291.656 406.78 290.593 405.932L281.915 399.027C280.996 398.29 279.94 397.438 278.744 396.473C277.559 395.5 276.461 394.579 275.45 393.712L275.255 393.851C275.719 394.847 276.199 396.027 276.697 397.391C277.198 398.737 277.625 399.923 277.979 400.948L282.839 415.142C282.589 415.435 282.292 415.72 281.95 415.997C281.607 416.274 281.245 416.548 280.865 416.819C280.485 417.089 280.042 417.364 279.537 417.642C279.031 417.921 278.593 418.11 278.223 418.211L277.858 418.078L269.485 391.062ZM282.244 408.346C282.092 408.454 281.907 408.585 281.69 408.74C281.465 408.884 281.244 409.033 281.027 409.188C280.813 409.324 280.63 409.447 280.478 409.555L277.888 411.4L276.645 406.417L278.909 404.803C279.061 404.695 279.24 404.567 279.447 404.42C279.645 404.262 279.848 404.11 280.054 403.963C280.253 403.805 280.422 403.676 280.564 403.575L283.056 401.799C283.208 401.691 283.391 401.569 283.605 401.433C283.811 401.286 284.021 401.144 284.235 401.008C284.442 400.861 284.621 400.733 284.773 400.625L287.118 398.953L291.146 401.952L288.573 403.786C288.421 403.895 288.24 404.032 288.031 404.197C287.814 404.352 287.6 404.512 287.391 404.678C287.184 404.825 287.005 404.953 286.853 405.061L282.244 408.346Z" fill="white"/>
<path d="M287.243 384.139C286.859 383.88 286.499 383.608 286.163 383.321C285.836 383.026 285.551 382.754 285.309 382.506C285.066 382.259 284.796 381.963 284.498 381.621C284.209 381.269 283.94 380.898 283.689 380.509L297.694 366.797C298.322 367.153 298.939 367.64 299.546 368.259C300.245 368.974 300.554 369.661 300.472 370.32C300.389 370.979 299.953 371.696 299.162 372.47L298.19 373.421C297.98 373.627 297.676 373.916 297.276 374.289C296.885 374.652 296.585 374.937 296.376 375.142L292.003 379.423C291.793 379.628 291.502 379.922 291.131 380.305C290.759 380.688 290.463 380.986 290.244 381.201L287.243 384.139ZM294.074 381.538C293.691 381.148 293.355 380.795 293.066 380.481C292.768 380.157 292.423 379.795 292.031 379.395L290.268 377.595L294.584 373.369L296.347 375.17C296.739 375.57 297.093 375.922 297.411 376.228C297.719 376.523 298.064 376.866 298.447 377.257L311.963 391.062C311.656 391.492 311.317 391.908 310.945 392.31C310.573 392.711 310.235 393.061 309.93 393.36C309.635 393.649 309.278 393.98 308.859 394.353C308.45 394.716 308.026 395.046 307.59 395.343L294.074 381.538Z" fill="white"/>
<path d="M303.316 368.096C302.899 367.894 302.504 367.675 302.131 367.439C301.765 367.193 301.445 366.964 301.17 366.753C300.895 366.542 300.585 366.288 300.242 365.992C299.906 365.684 299.587 365.355 299.284 365.005L311.207 349.449C311.879 349.712 312.559 350.107 313.247 350.635C314.041 351.243 314.443 351.879 314.455 352.543C314.467 353.208 314.136 353.979 313.463 354.857L312.635 355.937C312.457 356.169 312.196 356.499 311.853 356.924C311.518 357.34 311.261 357.664 311.083 357.896L307.36 362.754C307.181 362.987 306.935 363.319 306.621 363.75C306.308 364.182 306.057 364.519 305.871 364.762L303.316 368.096ZM309.709 364.554C309.275 364.222 308.893 363.921 308.563 363.65C308.222 363.372 307.829 363.063 307.384 362.722L305.384 361.189L309.058 356.395L311.059 357.928C311.503 358.269 311.904 358.568 312.261 358.825C312.608 359.074 312.998 359.365 313.432 359.697L328.766 371.45C328.524 371.92 328.247 372.379 327.936 372.829C327.624 373.28 327.339 373.674 327.079 374.013C326.828 374.341 326.521 374.719 326.159 375.147C325.806 375.565 325.434 375.951 325.043 376.307L309.709 364.554Z" fill="white"/>
<path d="M328.047 347.805C328.997 348.319 329.993 348.789 331.035 349.216C332.084 349.632 333.11 349.906 334.114 350.039C335.125 350.161 336.059 350.045 336.918 349.69C337.764 349.33 338.47 348.627 339.034 347.583C339.598 346.539 339.8 345.564 339.638 344.658C339.464 343.746 339.046 342.906 338.385 342.14C337.729 341.361 336.938 340.653 336.009 340.015C335.088 339.365 334.152 338.783 333.201 338.269C332.251 337.756 331.258 337.295 330.221 336.886C329.179 336.459 328.158 336.187 327.16 336.072C326.156 335.939 325.23 336.052 324.383 336.413C323.525 336.767 322.814 337.467 322.249 338.51C321.685 339.554 321.49 340.533 321.664 341.445C321.826 342.351 322.234 343.193 322.889 343.972C323.539 344.732 324.325 345.437 325.247 346.087C326.163 346.719 327.097 347.292 328.047 347.805ZM325.023 353.4C322.524 352.05 320.54 350.492 319.069 348.727C317.598 346.962 316.752 345.035 316.533 342.946C316.319 340.845 316.847 338.621 318.115 336.276C319.395 333.906 320.976 332.244 322.856 331.29C324.742 330.324 326.823 329.979 329.099 330.255C331.382 330.518 333.76 331.319 336.235 332.657C338.734 334.007 340.724 335.568 342.207 337.34C343.678 339.105 344.526 341.041 344.751 343.148C344.971 345.237 344.443 347.461 343.169 349.818C342.211 351.589 341.082 352.964 339.78 353.943C338.466 354.915 337.021 355.528 335.444 355.782C333.873 356.024 332.205 355.941 330.44 355.533C328.682 355.113 326.876 354.402 325.023 353.4Z" fill="white"/>
<path d="M339.551 325.178C340.501 325.692 341.497 326.162 342.539 326.589C343.588 327.005 344.614 327.279 345.618 327.412C346.628 327.534 347.563 327.418 348.421 327.063C349.268 326.703 349.974 326 350.538 324.956C351.102 323.912 351.303 322.937 351.141 322.031C350.968 321.119 350.55 320.28 349.888 319.513C349.233 318.734 348.441 318.026 347.513 317.388C346.591 316.738 345.655 316.156 344.705 315.642C343.755 315.129 342.762 314.668 341.725 314.259C340.682 313.832 339.662 313.56 338.663 313.445C337.659 313.312 336.734 313.425 335.887 313.786C335.029 314.14 334.317 314.84 333.753 315.884C333.189 316.927 332.994 317.906 333.167 318.818C333.329 319.724 333.738 320.566 334.393 321.345C335.043 322.105 335.829 322.811 336.751 323.46C337.667 324.092 338.601 324.665 339.551 325.178ZM336.526 330.773C334.028 329.423 332.043 327.865 330.572 326.1C329.101 324.335 328.256 322.408 328.036 320.319C327.823 318.218 328.35 315.994 329.618 313.649C330.899 311.279 332.479 309.617 334.359 308.663C336.246 307.697 338.327 307.352 340.603 307.628C342.885 307.891 345.264 308.692 347.739 310.03C350.237 311.38 352.228 312.941 353.711 314.713C355.181 316.478 356.029 318.414 356.255 320.521C356.474 322.61 355.947 324.834 354.673 327.191C353.715 328.962 352.585 330.337 351.283 331.316C349.97 332.288 348.524 332.901 346.947 333.155C345.376 333.397 343.709 333.314 341.944 332.906C340.185 332.486 338.38 331.775 336.526 330.773Z" fill="white"/>
<path fill-rule="evenodd" clip-rule="evenodd" d="M247.186 188.596L221.408 218.528H130.386C128.837 218.528 127.351 217.814 126.256 216.542C125.161 215.27 124.546 213.546 124.546 211.747C124.546 209.949 125.161 208.224 126.256 206.952C127.351 205.68 128.837 204.966 130.386 204.966H214.563L235.506 180.648V150.716C235.506 143.243 230.267 137.153 223.826 137.153H200.466V150.716H223.826V175.033L209.728 191.403H188.786V123.591H229.666C239.325 123.591 247.186 132.718 247.186 143.935V188.596ZM159.586 276.752L153.746 283.533C150.621 287.148 145.19 287.148 142.066 283.533L136.226 276.752V232.091H159.586V276.752ZM153.746 156.243C157.151 154.85 160.102 152.267 162.193 148.849C164.285 145.431 165.414 141.346 165.426 137.153V123.591H177.106V191.403H153.746V156.243ZM142.066 123.591H153.746V137.153C153.746 138.952 153.13 140.677 152.035 141.948C150.94 143.22 149.455 143.935 147.906 143.935C146.357 143.935 144.871 143.22 143.776 141.948C142.681 140.677 142.066 138.952 142.066 137.153V123.591ZM229.666 110.028H130.386V137.153C130.386 145.983 135.285 153.428 142.066 156.243V191.403H130.386C120.726 191.403 112.866 200.531 112.866 211.747C112.866 220.576 117.765 228.022 124.546 230.836V282.367L133.808 293.122C136.144 295.835 138.994 297.693 142.066 298.784V327.028H153.746V298.784C156.857 297.714 159.693 295.769 162.003 293.122L171.266 282.367V232.091H226.243L258.866 194.211V143.935C258.866 125.239 245.767 110.028 229.666 110.028Z" fill="white"/>
</svg>
