<svg width="146" height="218" viewBox="0 0 146 218" fill="none" xmlns="http://www.w3.org/2000/svg">
<path fill-rule="evenodd" clip-rule="evenodd" d="M134.32 78.7531L108.542 108.686H17.52C15.9711 108.686 14.4857 107.971 13.3905 106.699C12.2953 105.428 11.68 103.703 11.68 101.904C11.68 100.106 12.2953 98.381 13.3905 97.1092C14.4857 95.8375 15.9711 95.123 17.52 95.123H101.698L122.64 70.8055V40.873C122.64 33.4001 117.402 27.3105 110.96 27.3105H87.6V40.873H110.96V65.1906L96.8622 81.5605H75.92V13.748H116.8C126.459 13.748 134.32 22.8756 134.32 34.0918V78.7531ZM46.72 166.909L40.88 173.691C37.7556 177.305 32.3244 177.305 29.2 173.691L23.36 166.909V122.248H46.72V166.909ZM40.88 46.3998C44.2856 45.0069 47.2365 42.4244 49.3278 39.0065C51.419 35.5887 52.5481 31.5031 52.56 27.3105V13.748H64.24V81.5605H40.88V46.3998ZM29.2 13.748H40.88V27.3105C40.88 29.109 40.2647 30.8339 39.1695 32.1056C38.0743 33.3773 36.5889 34.0918 35.04 34.0918C33.4911 34.0918 32.0057 33.3773 30.9105 32.1056C29.8153 30.8339 29.2 29.109 29.2 27.3105V13.748ZM116.8 0.185547H17.52V27.3105C17.52 36.1397 22.4198 43.5855 29.2 46.3998V81.5605H17.52C7.86064 81.5605 0 90.6881 0 101.904C0 110.733 4.89976 118.179 11.68 120.994V172.524L20.9422 183.279C23.2782 185.992 26.1282 187.85 29.2 188.942V217.186H40.88V188.942C43.9915 187.871 46.8277 185.926 49.1378 183.279L58.4 172.524V122.248H113.378L146 84.368V34.0918C146 15.3959 132.901 0.185547 116.8 0.185547Z" fill="url(#paint0_linear_413_564)"/>
<defs>
<linearGradient id="paint0_linear_413_564" x1="73" y1="0.185547" x2="95.0503" y2="138.898" gradientUnits="userSpaceOnUse">
<stop stop-color="#E5A62F"/>
<stop offset="1" stop-color="#6D0621"/>
</linearGradient>
</defs>
</svg>
