<svg width="215" height="216" viewBox="0 0 215 216" fill="none" xmlns="http://www.w3.org/2000/svg">
<path d="M80.2388 19.2803L11.5912 87.9279C7.95109 91.5691 5.90622 96.5069 5.90622 101.655C5.90622 106.804 7.95109 111.742 11.5912 115.383L66.5015 170.303C68.3048 172.108 70.4462 173.541 72.8033 174.518C75.1605 175.495 77.6871 175.998 80.2388 175.998C82.7904 175.998 85.3171 175.495 87.6742 174.518C90.0313 173.541 92.1728 172.108 93.9761 170.303L162.614 101.655L80.2388 19.2803ZM80.2388 19.2803L66.5112 5.55267" stroke="black" stroke-width="10" stroke-linecap="round" stroke-linejoin="round"/>
<path d="M180.167 133.625C180.167 133.625 209.292 162.682 209.292 181.07C209.292 197.137 196.234 210.195 180.167 210.195C164.09 210.195 151.158 197.137 151.042 181.07C151.139 162.672 180.167 133.625 180.167 133.625Z" stroke="black" stroke-width="10" stroke-miterlimit="1.5" stroke-linecap="round" stroke-linejoin="round"/>
</svg>
