<svg width="225" height="229" viewBox="0 0 225 229" fill="none" xmlns="http://www.w3.org/2000/svg">
<path d="M161.051 143.615V187.303M139.198 165.459H182.895M219.292 150.897C219.323 167.852 213.566 184.309 202.975 197.549C192.383 210.789 177.59 220.017 161.042 223.709C144.493 220.017 129.7 210.789 119.109 197.549C108.517 184.309 102.761 167.852 102.792 150.897V129.062C102.792 125.2 104.326 121.496 107.057 118.765C109.788 116.034 113.492 114.5 117.354 114.5H204.729C208.591 114.5 212.295 116.034 215.026 118.765C217.757 121.496 219.292 125.2 219.292 129.062V150.897Z" stroke="black" stroke-width="10" stroke-linecap="round" stroke-linejoin="round"/>
<path d="M78.5208 194.623H34.8333C27.1089 194.623 19.7009 191.554 14.2389 186.092C8.77686 180.63 5.70834 173.222 5.70834 165.498V92.6854C5.70834 84.9609 8.77686 77.5529 14.2389 72.0909C19.7009 66.6289 27.1089 63.5604 34.8333 63.5604H93.0833C99.6799 63.5592 106.081 65.7973 111.24 69.9084C116.399 74.0195 120.009 79.7601 121.48 86.1905M5.70834 19.8437L11.7469 13.8149C17.2029 8.35725 24.6018 5.28805 32.3189 5.28125H100.365M63.9486 34.4062V5.28125M93.0833 63.541H34.8333V48.9785C34.8333 45.1162 36.3676 41.4122 39.0986 38.6812C41.8296 35.9502 45.5336 34.416 49.3958 34.416H78.5208C82.3831 34.416 86.0871 35.9502 88.8181 38.6812C91.5491 41.4122 93.0833 45.1162 93.0833 48.9785V63.541Z" stroke="black" stroke-width="10" stroke-linecap="round" stroke-linejoin="round"/>
</svg>
