<svg width="233" height="215" viewBox="0 0 233 215" fill="none" xmlns="http://www.w3.org/2000/svg">
<path d="M0 209.437H233M131.062 185.167V126.917C131.062 126.917 106.792 112.354 67.9583 112.354C29.125 112.354 4.85417 126.917 4.85417 126.917V185.167M169.896 5.5625V34.6875H140.771V63.8125H169.896V92.9375H199.021V63.8125H228.146V34.6875H199.021V5.5625H169.896ZM65.473 92.9375C65.473 92.9375 38.8236 75.9673 38.8236 54.7449C38.8236 38.3281 51.8716 25.018 67.968 25.018C84.0645 25.018 97.0445 38.3281 97.0445 54.7449C97.0445 75.9479 70.4825 92.9375 70.4825 92.9375H65.473Z" stroke="black" stroke-width="10"/>
</svg>
