<svg width="193" height="195" viewBox="0 0 193 195" fill="none" xmlns="http://www.w3.org/2000/svg">
<path d="M41.0118 161.206V161.581L41.3721 161.686L119.473 184.401L119.616 184.443L119.759 184.399L181.59 165.367L181.967 165.251L181.941 164.856C181.73 161.651 180.749 159.241 178.909 157.742L178.908 157.742C177.125 156.296 175.133 155.562 172.946 155.562H123.979C119.615 155.562 115.667 155.391 112.134 155.05C108.633 154.712 105.042 153.902 101.359 152.617L101.35 152.614L79.2228 145.395L82.3826 136.191L102.804 143.547C102.805 143.547 102.806 143.548 102.807 143.548C106.179 144.824 110 145.586 114.266 145.842L114.266 145.842C118.498 146.089 124.29 146.233 131.637 146.275L132.14 146.277V145.775C132.14 142.515 131.542 139.826 130.304 137.742L130.303 137.739C129.051 135.664 127.259 134.211 124.943 133.391C124.943 133.391 124.942 133.391 124.941 133.39L65.5421 111.675L65.5354 111.672C65.1269 111.53 64.7441 111.42 64.388 111.346L64.388 111.346L64.3782 111.344C64.0125 111.276 63.6165 111.243 63.192 111.243H41.5118H41.0118V111.743V161.206ZM172.946 146.275C179.05 146.275 183.659 148.172 186.854 151.912C190.075 155.688 191.7 160.488 191.7 166.35V172.307L120.135 194.315L41.6512 171.518L41.0118 171.332V171.998V184.841H0.716003V101.956H62.9856C63.8945 101.956 64.8369 102.048 65.8134 102.235C66.7914 102.422 67.7164 102.681 68.5892 103.013L68.5955 103.016L128.262 124.792C128.263 124.793 128.264 124.793 128.265 124.794C131.85 126.154 134.951 128.601 137.565 132.162L137.566 132.162C140.158 135.685 141.474 140.21 141.474 145.775V146.275H141.974H172.946ZM10.0399 175.053V175.553H10.5399H31.1878H31.6878V175.053V111.743V111.243H31.1878H10.5399H10.0399V111.743V175.053ZM77.2429 9.95126H62.257V0.663635H113.377C117.461 0.663635 121.4 1.20626 125.194 2.29042C128.777 3.31402 132.092 4.70433 135.143 6.46029L128.286 13.2932C126.079 12.2417 123.777 11.4306 121.381 10.8601C118.882 10.2533 116.217 9.95126 113.387 9.95126H87.5772H87.0772V10.4513V41.1598V41.6005L87.5143 41.6559C100.066 43.2465 109.994 48.4691 117.338 57.3119C124.7 66.1761 128.373 76.139 128.373 87.2171C128.373 87.2172 128.373 87.2174 128.373 87.2175L128.363 98.9432L119.039 95.719L119.039 86.9706L119.039 86.9668C118.962 76.8916 115.376 68.3189 108.288 61.2775C101.2 54.2351 92.5624 50.7108 82.4049 50.7108C73.4498 50.7108 65.8441 53.3125 59.6187 58.5332C53.5141 63.6526 49.3862 70.016 47.2433 77.613H37.5696C39.6034 68.5594 43.9075 60.7088 50.4878 54.0519C57.1968 47.272 66.1247 43.1284 77.3087 41.6452L77.7429 41.5876V41.1495V10.4513V9.95126H77.2429ZM155.738 63.3973L155.737 63.3969C152.848 60.5242 151.404 56.9977 151.404 52.7848C151.404 49.6138 152.533 45.5977 154.846 40.7155C157.105 35.9664 160.949 29.6056 166.39 21.6251C171.832 29.605 175.676 35.936 177.936 40.6259C180.246 45.4279 181.376 49.4752 181.376 52.7848C181.376 56.9977 179.932 60.5279 177.043 63.4076C174.16 66.2796 170.621 67.706 166.39 67.706C162.161 67.706 158.621 66.2699 155.738 63.3973Z" fill="black" stroke="black"/>
</svg>
