<svg width="221" height="221" viewBox="0 0 221 221" fill="none" xmlns="http://www.w3.org/2000/svg">
<path d="M219.24 49.76L171.24 1.75999C170.103 0.700153 168.598 0.123167 167.044 0.150593C165.489 0.178019 164.006 0.807715 162.907 1.90702C161.808 3.00632 161.178 4.4894 161.151 6.04381C161.123 7.59822 161.7 9.10259 162.76 10.24L182.51 30L151 61.51L115.24 25.76C114.691 25.1705 114.028 24.6977 113.292 24.3697C112.556 24.0418 111.762 23.8655 110.956 23.8513C110.151 23.837 109.35 23.9852 108.603 24.287C107.856 24.5888 107.177 25.0379 106.608 25.6077C106.038 26.1774 105.589 26.8561 105.287 27.6032C104.985 28.3503 104.837 29.1506 104.851 29.9562C104.865 30.7618 105.042 31.5563 105.37 32.2923C105.698 33.0283 106.171 33.6907 106.76 34.24L114.51 42L29.1 127.41C27.7974 128.708 26.7644 130.251 26.0608 131.95C25.3571 133.649 24.9966 135.471 25 137.31V187.51L2.76001 209.76C2.17051 210.309 1.6977 210.972 1.36976 211.708C1.04183 212.444 0.86549 213.238 0.851276 214.044C0.837061 214.849 0.985258 215.65 1.28703 216.397C1.58879 217.144 2.03795 217.823 2.6077 218.392C3.17745 218.962 3.85612 219.411 4.60323 219.713C5.35033 220.015 6.15057 220.163 6.95619 220.149C7.76181 220.135 8.55632 219.958 9.29231 219.63C10.0283 219.302 10.6907 218.829 11.24 218.24L33.49 196H83.69C85.5291 196.003 87.3506 195.643 89.0497 194.939C90.7488 194.236 92.2919 193.203 93.59 191.9L179 106.49L186.76 114.24C187.897 115.3 189.402 115.877 190.956 115.849C192.511 115.822 193.994 115.192 195.093 114.093C196.192 112.994 196.822 111.511 196.849 109.956C196.877 108.402 196.3 106.897 195.24 105.76L159.49 70L191 38.49L210.76 58.24C211.897 59.2998 213.402 59.8768 214.956 59.8494C216.511 59.822 217.994 59.1923 219.093 58.093C220.192 56.9937 220.822 55.5106 220.849 53.9562C220.877 52.4018 220.3 50.8974 219.24 49.76ZM85.1 183.41C84.7267 183.786 84.2196 183.998 83.69 184H37V137.31C37.0022 136.78 37.2144 136.273 37.59 135.9L57 116.49L78.76 138.24C79.3093 138.829 79.9717 139.302 80.7077 139.63C81.4437 139.958 82.2382 140.135 83.0438 140.149C83.8495 140.163 84.6497 140.015 85.3968 139.713C86.1439 139.411 86.8226 138.962 87.3923 138.392C87.9621 137.823 88.4112 137.144 88.713 136.397C89.0148 135.65 89.163 134.849 89.1487 134.044C89.1345 133.238 88.9582 132.444 88.6303 131.708C88.3023 130.972 87.8295 130.309 87.24 129.76L65.49 108L81 92.49L102.76 114.24C103.897 115.3 105.402 115.877 106.956 115.849C108.511 115.822 109.994 115.192 111.093 114.093C112.192 112.994 112.822 111.511 112.849 109.956C112.877 108.402 112.3 106.897 111.24 105.76L89.49 84L123 50.49L170.51 98L85.1 183.41Z" fill="black"/>
</svg>
